<?xml version="1.0" encoding="UTF-8"?>
<!DOCTYPE svg  PUBLIC '-//W3C//DTD SVG 1.1//EN'  'http://www.w3.org/Graphics/SVG/1.1/DTD/svg11.dtd'>
<svg version="1.1" xmlns="http://www.w3.org/2000/svg">
<defs>
<font id="Formular-Bold" horiz-adv-x="622">
<font-face font-family="Formular" font-weight="700" ascent="778" bbox="-36 -229 1007 897" cap-height="714" descent="-222" panose-1="2 0 0 0 0 0 0 0 0 0" underline-position="-100" underline-thickness="50" unicode-range="U+0020-00FE" units-per-em="1000" x-height="514"/>
<missing-glyph/>
<glyph glyph-name="space" horiz-adv-x="278" unicode=" "/>
<glyph d="M102 714h141v-290l-26 -209h-89l-26 209v290zM249 0h-153v152h153v-152z" glyph-name="exclam" horiz-adv-x="345" unicode="!"/>
<glyph d="M72 427v287h127v-287h-127zM270 427v287h127v-287h-127z" glyph-name="quotedbl" horiz-adv-x="469" unicode='"'/>
<glyph d="M63 520h119l29 180h108l-28 -180h113l29 180h108l-28 -180h97v-106h-114l-20 -128h101v-106h-117l-29 -180h-110l29 180h-113l-28 -180h-110l28 180h-96v106h113l21 128h-102v106zM274 414l-20 -128h113l20 128h-113z" glyph-name="numbersign" horiz-adv-x="641" unicode="#"/>
<glyph d="M406 410q164 -29 189 -158q4 -22 4 -45q0 -102 -81 -165q-63 -49 -158 -55v-85h-72v86q-168 14 -224 147q-15 38 -20 83h142q14 -76 80 -99q11 -4 22 -6v192l-45 10q-172 44 -177 189q0 99 79 160q59 44 143 50v84h73v-86q118 -12 180 -98q33 -48 40 -107h-141 q-11 59 -62 77q-9 3 -17 4v-169zM361 293v-182q61 3 85 48q10 19 10 40q-2 72 -84 91zM209 510q0 -50 49 -70q14 -5 30 -9v159q-59 -6 -75 -53q-4 -13 -4 -27z" glyph-name="dollar" horiz-adv-x="653" unicode="$"/>
<glyph d="M203 714q109 0 149 -94q18 -42 18 -95q0 -118 -76 -165q-39 -24 -91 -24q-109 0 -149 96q-16 42 -16 93q0 116 74 164q39 25 91 25zM203 418q66 0 73 87q1 10 1 20q0 93 -58 105q-8 2 -16 2q-60 0 -71 -78q-2 -14 -2 -29q0 -95 59 -106q7 -1 14 -1zM676 365 q107 0 148 -93q18 -43 18 -96q0 -117 -75 -165q-39 -24 -91 -24q-110 0 -150 95q-17 42 -17 94q0 115 74 164q39 25 93 25zM676 69q60 0 72 76q2 15 2 31q0 88 -53 104q-10 3 -21 3q-62 0 -72 -79q-2 -14 -2 -28q0 -98 63 -106q6 -1 11 -1zM280 0h-102l424 700h101z" glyph-name="percent" horiz-adv-x="880" unicode="%"/>
<glyph d="M534 354h135q-18 -115 -78 -201l151 -153h-169l-57 57h-20q-89 -70 -200 -70q-144 0 -208 88q-36 51 -36 121q0 111 108 183l12 8v20q-53 63 -60 119q-1 11 -1 22q0 92 75 138q48 28 112 28q110 0 165 -67q34 -42 34 -98q0 -72 -75 -135q-21 -18 -51 -39l126 -131 q29 47 37 110zM304 107q66 1 116 46l-152 156l-23 -16q-53 -38 -54 -93q0 -63 61 -85q24 -8 52 -8zM302 609q-48 0 -63 -39q-4 -11 -4 -24q0 -39 44 -82q2 -2 6 -5l10 -10q49 38 60 52q17 22 17 46q0 44 -43 58q-13 4 -27 4z" glyph-name="ampersand" horiz-adv-x="767" unicode="&amp;"/>
<glyph d="M72 427v287h127v-287h-127z" glyph-name="quotesingle" horiz-adv-x="271" unicode="'"/>
<glyph d="M165 311q0 -231 150 -443q3 -5 6 -9h-122q-155 189 -155 452q1 261 152 448h122q-148 -209 -153 -431v-17z" glyph-name="parenleft" horiz-adv-x="325" unicode="("/>
<glyph d="M160 311q0 229 -150 444q-2 2 -3 4h122q152 -188 152 -448q-1 -264 -155 -452h-122q144 201 155 415q1 19 1 37z" glyph-name="parenright" horiz-adv-x="325" unicode=")"/>
<glyph d="M200 714h97l-7 -159l150 56l31 -93l-154 -44l99 -125l-79 -58l-90 132l-88 -132l-78 58l98 125l-153 44l30 93l149 -56z" glyph-name="asterisk" horiz-adv-x="496" unicode="*"/>
<glyph d="M277 349v197h118v-197h199v-119h-199v-198h-118v198h-198v119h198z" glyph-name="plus" horiz-adv-x="673" unicode="+"/>
<glyph d="M137 0h-68v152h154v-169l-77 -125h-85l76 125v17z" glyph-name="comma" horiz-adv-x="293" unicode=","/>
<glyph d="M350 222h-303v121h303v-121z" glyph-name="hyphen" horiz-adv-x="397" unicode="-"/>
<glyph d="M223 0h-154v152h154v-152z" glyph-name="period" horiz-adv-x="293" unicode="."/>
<glyph d="M115 -141h-117l302 900h114z" glyph-name="slash" horiz-adv-x="439" unicode="/"/>
<glyph d="M323 714q155 0 226 -132q48 -91 48 -232q0 -246 -139 -328q-59 -35 -135 -35q-155 0 -226 132q-48 90 -48 231q0 247 139 330q59 34 135 34zM323 115q128 7 130 235q-1 235 -130 236q-128 -4 -129 -236q8 -228 129 -235z" glyph-name="zero" horiz-adv-x="646" unicode="0"/>
<glyph d="M53 0v125h158v431h-20l-139 -92v143l139 93h164v-575h144v-125h-446z" glyph-name="one" horiz-adv-x="532" unicode="1"/>
<glyph d="M47 489q7 146 126 200q57 25 130 25q139 0 204 -90q39 -56 39 -135q0 -116 -106 -211q-12 -10 -23 -19l-146 -114v-20h296v-125h-517v144l239 179q111 83 112 163q0 79 -69 96q-16 4 -33 4q-88 0 -105 -77q-2 -10 -3 -20h-144z" glyph-name="two" horiz-adv-x="607" unicode="2"/>
<glyph d="M73 700h450v-141l-135 -112v-20q99 -9 145 -88q28 -48 28 -113q0 -127 -99 -193q-70 -46 -168 -46q-138 0 -213 87q-50 60 -53 139h144q9 -74 81 -93q20 -5 41 -5q83 0 112 61q11 23 11 51q0 82 -70 107q-24 8 -53 8q-39 0 -64 -7v113l135 111v20h-292v121z" glyph-name="three" horiz-adv-x="604" unicode="3"/>
<glyph d="M508 275h87v-125h-87v-150h-139v150h-333v147l310 403h162v-425zM171 275h203v263h-20l-183 -243v-20z" glyph-name="four" horiz-adv-x="634" unicode="4"/>
<glyph d="M350 477q112 0 177 -82q50 -64 50 -154q0 -128 -92 -200q-70 -54 -167 -54q-152 0 -224 101q-37 54 -42 125h144q11 -86 96 -97q10 -1 21 -1q78 0 108 63q12 28 12 61q0 89 -69 116q-23 9 -50 9q-72 -1 -111 -52h-134l31 388h432v-121h-320l-11 -144h20q55 42 129 42z " glyph-name="five" horiz-adv-x="624" unicode="5"/>
<glyph d="M356 465q109 0 176 -78q53 -64 53 -152q0 -115 -82 -187q-71 -61 -175 -61q-207 0 -261 199q-18 66 -18 151q0 230 119 324q67 53 164 53q115 0 185 -77q41 -48 50 -108h-143q-20 65 -95 66q-95 0 -128 -105q-11 -36 -14 -82h20q51 56 149 57zM325 107q77 0 104 64 q11 26 11 59q0 87 -69 113q-22 8 -47 8q-79 0 -106 -64q-10 -25 -10 -56q0 -82 62 -112q26 -12 55 -12z" glyph-name="six" unicode="6"/>
<glyph d="M525 556l-280 -556h-150l281 556v19h-329v125h478v-144z" glyph-name="seven" horiz-adv-x="573" unicode="7"/>
<glyph d="M480 361q59 -23 88 -83q18 -38 18 -81q0 -100 -85 -160q-73 -50 -185 -50q-156 0 -229 91q-41 52 -41 119q0 94 73 146q16 11 33 18v20q-65 34 -80 109q-3 18 -3 36q0 93 83 146q67 42 164 42q141 0 209 -81q38 -47 38 -107q0 -89 -70 -137q-7 -5 -13 -8v-20zM316 603 q-69 0 -97 -48q-11 -21 -11 -44q0 -58 54 -82q24 -11 54 -11q72 0 98 51q10 20 10 42q0 56 -52 80q-25 12 -56 12zM316 107q88 0 117 60q10 21 10 44q0 62 -57 90q-31 14 -70 14q-90 0 -118 -62q-9 -20 -9 -42q0 -65 59 -91q30 -13 68 -13z" glyph-name="eight" horiz-adv-x="632" unicode="8"/>
<glyph d="M266 236q-109 0 -176 78q-53 64 -53 152q0 115 82 187q71 61 175 61q207 0 261 -199q18 -66 18 -151q0 -230 -119 -324q-67 -53 -164 -53q-115 0 -185 77q-41 48 -50 108h143q20 -65 95 -66q95 0 128 105q11 36 14 82h-20q-51 -56 -149 -57zM297 594q-77 0 -104 -64 q-11 -26 -11 -59q0 -87 69 -113q22 -8 47 -8q79 0 106 64q10 25 10 56q0 82 -62 112q-26 12 -55 12z" glyph-name="nine" unicode="9"/>
<glyph d="M223 0h-154v152h154v-152zM223 362h-154v152h154v-152z" glyph-name="colon" horiz-adv-x="293" unicode=":"/>
<glyph d="M137 0h-68v152h154v-169l-77 -125h-85l76 125v17zM223 362h-154v152h154v-152z" glyph-name="semicolon" horiz-adv-x="293" unicode=";"/>
<glyph d="M583 137v-123l-504 230v90l504 230v-123l-315 -142v-20z" glyph-name="less" horiz-adv-x="662" unicode="&lt;"/>
<glyph d="M593 245v-119h-514v119h514zM593 452v-119h-514v119h514z" glyph-name="equal" horiz-adv-x="672" unicode="="/>
<glyph d="M79 14v123l314 142v20l-314 142v123l504 -230v-90z" glyph-name="greater" horiz-adv-x="662" unicode="&gt;"/>
<glyph d="M280 727q154 0 215 -98q30 -47 30 -107q0 -84 -63 -139q-19 -17 -58 -44q-48 -32 -58 -56q-6 -15 -6 -36v-32h-143v32q0 73 44 120q20 20 54 46q53 39 58 44q27 27 27 64q0 51 -47 72q-22 10 -49 10q-101 0 -105 -103v-2h-143q2 124 91 186q62 43 153 43zM345 0h-154v152 h154v-152z" glyph-name="question" horiz-adv-x="578" unicode="?"/>
<glyph d="M673 -61l27 -53q-119 -76 -267 -76q-194 0 -300 126q-85 103 -85 258q0 205 125 345q125 138 323 153q23 2 45 2q164 0 274 -95q112 -99 112 -254q0 -156 -80 -243q-64 -69 -158 -69q-89 1 -117 62h-18q-49 -61 -127 -62q-110 0 -146 93q-15 38 -15 86q0 110 68 186 q61 66 145 67q67 0 96 -41q3 -4 4 -6h18l8 33h113l-42 -254q-5 -40 -5 -45q0 -46 33 -52q7 -1 14 -1q55 0 95 59q46 67 46 179q0 148 -106 230q-88 67 -222 67q-163 0 -280 -108q-123 -113 -134 -291q-1 -16 -1 -32q0 -171 103 -261q84 -72 221 -72q127 1 233 69zM460 123 q59 0 90 67q19 40 19 90q-1 95 -73 96q-61 0 -91 -72q-16 -39 -17 -85q9 -89 72 -96z" glyph-name="at" horiz-adv-x="976" unicode="@"/>
<glyph d="M553 0l-58 193h-272l-58 -193h-147l227 714h231l228 -714h-151zM336 571l-75 -248h194l-75 248h-44z" glyph-name="A" horiz-adv-x="722" unicode="A"/>
<glyph d="M578 361q54 -22 80 -84q15 -34 15 -70q0 -128 -106 -179q-58 -28 -140 -28h-344v714h335q147 0 207 -91q28 -44 28 -98q0 -85 -53 -130q-11 -8 -22 -14v-20zM400 431q99 2 100 80q-2 78 -101 79h-167v-159h168zM405 127q114 2 115 88q-2 90 -113 91h-175v-179h173z" glyph-name="B" horiz-adv-x="724" unicode="B"/>
<glyph d="M534 228h155q-21 -134 -130 -199q-72 -42 -168 -42q-183 0 -275 131q-67 97 -67 239q0 190 114 291q90 79 228 79q155 0 237 -102q41 -52 54 -119h-156q-28 87 -135 88q-120 0 -166 -111q-23 -55 -23 -126q0 -141 80 -203q46 -34 109 -34q98 0 133 76q7 16 10 32z" glyph-name="C" horiz-adv-x="737" unicode="C"/>
<glyph d="M381 714q202 0 285 -151q46 -85 46 -206q0 -207 -128 -299q-81 -58 -203 -58h-298v714h298zM362 133q150 0 187 139q10 39 10 85q0 165 -112 209q-38 15 -85 15h-130v-448h130z" glyph-name="D" horiz-adv-x="761" unicode="D"/>
<glyph d="M232 133h390v-133h-539v714h528v-133h-379v-150h295v-130h-295v-168z" glyph-name="E" horiz-adv-x="666" unicode="E"/>
<glyph d="M610 581h-378v-164h298v-130h-298v-287h-149v714h527v-133z" glyph-name="F" horiz-adv-x="650" unicode="F"/>
<glyph d="M389 397h318v-84q0 -161 -95 -250q-82 -76 -218 -76q-190 0 -282 137q-63 95 -63 233q0 188 113 289q91 81 233 81q168 0 249 -113q32 -46 44 -104h-155q-27 83 -139 84q-121 0 -168 -110q-24 -55 -24 -127q0 -144 84 -205q46 -33 109 -33q125 0 155 104q7 25 8 52h-169 v122z" glyph-name="G" horiz-adv-x="761" unicode="G"/>
<glyph d="M548 714h149v-714h-149v299h-316v-299h-149v714h149v-278h316v278z" glyph-name="H" horiz-adv-x="779" unicode="H"/>
<glyph d="M88 714h149v-714h-149v714z" glyph-name="I" horiz-adv-x="324" unicode="I"/>
<glyph d="M280 -13q-142 0 -208 97q-40 59 -43 143h148q9 -106 102 -107q82 0 93 93q2 14 2 28v473h149v-474q0 -156 -107 -219q-57 -34 -136 -34z" glyph-name="J" horiz-adv-x="604" unicode="J"/>
<glyph d="M83 0v714h149v-298l292 298h174l-214 -227l248 -487h-164l-184 359h-20l-132 -132v-227h-149z" glyph-name="K" horiz-adv-x="753" unicode="K"/>
<glyph d="M232 136h378v-136h-527v714h149v-578z" glyph-name="L" horiz-adv-x="651" unicode="L"/>
<glyph d="M83 0v714h233l116 -285h20l116 285h229v-714h-139v557h-20l-130 -318h-136l-130 318h-20v-557h-139z" glyph-name="M" horiz-adv-x="879" unicode="M"/>
<glyph d="M564 714h136v-714h-186l-275 492h-20v-492h-136v714h186l275 -492h20v492z" glyph-name="N" horiz-adv-x="782" unicode="N"/>
<glyph d="M397 727q186 0 280 -133q68 -97 68 -237q0 -181 -108 -283q-93 -87 -240 -87q-186 0 -280 133q-68 97 -68 237q0 181 108 283q93 87 240 87zM397 120q127 0 174 116q21 53 21 121q0 144 -84 204q-46 33 -111 33q-125 0 -172 -113q-23 -54 -23 -124q0 -141 82 -203 q47 -34 113 -34z" glyph-name="O" horiz-adv-x="794" unicode="O"/>
<glyph d="M409 714q166 0 228 -106q30 -52 30 -121q0 -142 -112 -200q-61 -31 -146 -31h-177v-256h-149v714h326zM388 387q119 0 126 87v11q0 83 -88 96q-18 2 -38 2h-156v-196h156z" glyph-name="P" horiz-adv-x="715" unicode="P"/>
<glyph d="M397 727q186 0 280 -133q68 -97 68 -237q-1 -178 -105 -280l91 -154h-135l-53 91q-67 -27 -146 -27q-186 0 -280 133q-68 97 -68 237q0 181 108 283q93 87 240 87zM397 120q42 0 77 14l-113 196h130l69 -117q32 62 32 144q0 144 -84 204q-46 33 -111 33q-125 0 -172 -113 q-23 -54 -23 -124q0 -141 82 -203q47 -34 113 -34z" glyph-name="Q" horiz-adv-x="794" unicode="Q"/>
<glyph d="M419 714q161 0 222 -105q29 -50 29 -117q-1 -135 -106 -191l107 -301h-150l-96 269h-193v-269h-149v714h336zM232 583v-187h166q114 0 120 84v10q0 67 -61 85q-29 8 -74 8h-151z" glyph-name="R" horiz-adv-x="726" unicode="R"/>
<glyph d="M619 518h-152q-20 80 -130 81q-85 0 -109 -48q-8 -16 -8 -33q0 -53 76 -70q7 -2 13 -3l133 -24q184 -33 194 -193v-16q0 -108 -88 -171q-77 -54 -199 -54q-180 0 -259 108q-39 53 -46 123h152q18 -102 159 -103q94 0 122 54q9 17 9 36q0 67 -79 85l-18 4l-136 24 q-157 28 -180 154q-3 20 -3 41q0 105 87 165q73 49 182 49q152 0 229 -90q43 -51 51 -119z" glyph-name="S" horiz-adv-x="690" unicode="S"/>
<glyph d="M609 714v-131h-222v-583h-149v583h-222v131h593z" glyph-name="T" horiz-adv-x="625" unicode="T"/>
<glyph d="M530 714h149v-451q0 -180 -140 -245q-67 -31 -160 -31q-196 0 -266 132q-32 61 -32 144v451h149v-448q0 -97 77 -132q32 -14 73 -14q105 0 138 81q12 30 12 65v448z" glyph-name="U" horiz-adv-x="760" unicode="U"/>
<glyph d="M229 0l-210 714h154l159 -570h44l159 570h152l-210 -714h-248z" glyph-name="V" horiz-adv-x="706" unicode="V"/>
<glyph d="M375 510h174l97 -334h19l64 538h141l-88 -714h-209l-101 371h-20l-102 -371h-209l-88 714h143l63 -538h20z" glyph-name="W" horiz-adv-x="923" unicode="W"/>
<glyph d="M511 0l-150 294h-29l-153 -294h-160l198 375l-171 339h153l134 -262h29l138 262h151l-174 -335l198 -379h-164z" glyph-name="X" horiz-adv-x="694" unicode="X"/>
<glyph d="M325 429h28l153 285h158l-250 -460v-254h-150v254l-249 460h157z" glyph-name="Y" horiz-adv-x="679" unicode="Y"/>
<glyph d="M606 714v-155l-373 -404v-22h389v-133h-578v155l375 404v22h-348v133h535z" glyph-name="Z" horiz-adv-x="666" unicode="Z"/>
<glyph d="M328 -141h-259v900h259v-103h-138v-694h138v-103z" glyph-name="bracketleft" horiz-adv-x="381" unicode="["/>
<glyph d="M441 -141h-117l-299 900h114z" glyph-name="backslash" horiz-adv-x="439" unicode="\"/>
<glyph d="M312 -141h-259v103h138v694h-138v103h259v-900z" glyph-name="bracketright" horiz-adv-x="381" unicode="]"/>
<glyph d="M168 273h-130l216 420h81l215 -420h-129l-119 231h-16z" glyph-name="asciicircum" horiz-adv-x="588" unicode="^"/>
<glyph d="M514 -154h-515v91h515v-91z" glyph-name="underscore" horiz-adv-x="513" unicode="_"/>
<glyph d="M156 582l-116 145h147l93 -145h-124z" glyph-name="grave" horiz-adv-x="320" unicode="`"/>
<glyph d="M389 0v44h-20q-50 -57 -144 -57q-111 0 -161 78q-26 42 -26 93q0 85 68 133q55 38 141 38h137v13q-2 79 -91 80q-80 -1 -87 -55h-139q4 90 92 134q54 26 127 26q212 0 231 -161q2 -16 2 -32v-334h-130zM269 98q69 0 100 52q15 26 15 56v30h-110q-95 -1 -96 -67 q0 -64 75 -70q8 -1 16 -1z" glyph-name="a" horiz-adv-x="586" unicode="a"/>
<glyph d="M370 527q120 0 183 -100q44 -71 44 -170q0 -145 -85 -219q-59 -51 -142 -51q-91 1 -140 61h-20v-48h-136v727h140v-261h20q47 61 136 61zM334 103q86 0 113 86q10 31 10 68q0 106 -66 140q-26 13 -57 13q-86 0 -114 -84q-11 -32 -11 -69q0 -97 59 -135q28 -19 66 -19z " glyph-name="b" horiz-adv-x="642" unicode="b"/>
<glyph d="M401 173h138q-12 -103 -103 -154q-58 -32 -132 -32q-142 0 -212 102q-47 69 -47 168q0 146 97 220q67 50 162 50q128 0 192 -82q32 -42 39 -95h-139q-19 59 -91 60q-93 0 -114 -98q-6 -25 -6 -54q0 -113 69 -145q23 -10 51 -10q81 0 95 67q1 2 1 3z" glyph-name="c" horiz-adv-x="583" unicode="c"/>
<glyph d="M272 527q90 -1 136 -61h20v261h140v-727h-136v48h-20q-50 -61 -140 -61q-123 0 -185 103q-42 70 -42 167q0 144 85 218q59 52 142 52zM308 103q85 0 114 84q11 32 11 70q0 98 -61 136q-28 17 -64 17q-87 0 -114 -86q-9 -31 -9 -67q0 -104 64 -140q26 -14 59 -14z" glyph-name="d" horiz-adv-x="642" unicode="d"/>
<glyph d="M552 283v-42h-368q11 -135 125 -138q75 1 96 54h142q-24 -119 -140 -156q-45 -14 -100 -14q-146 0 -216 105q-46 69 -46 167q0 151 102 223q65 45 157 45q141 0 207 -101q40 -61 41 -143zM303 422q-92 -1 -114 -88h220q-11 73 -79 86q-14 2 -27 2z" glyph-name="e" horiz-adv-x="597" unicode="e"/>
<glyph d="M384 397h-133v-397h-140v397h-87v117h87v39q0 156 155 172q19 2 40 2h86v-117h-78q-62 -2 -63 -65v-31h133v-117z" glyph-name="f" horiz-adv-x="423" unicode="f"/>
<glyph d="M433 514h136v-489q0 -129 -99 -194q-67 -42 -159 -42q-158 0 -219 90q-24 36 -28 83h139q12 -62 106 -63q108 0 119 113q1 13 1 25v31h-20q-42 -59 -132 -60q-120 0 -185 94q-47 69 -47 165q0 133 84 207q62 53 149 53q89 0 132 -56q2 -3 3 -5h20v48zM308 125 q82 0 113 74q13 31 13 68q0 89 -60 126q-29 17 -66 17q-78 0 -109 -70q-14 -33 -14 -73q0 -90 60 -126q28 -16 63 -16z" glyph-name="g" horiz-adv-x="643" unicode="g"/>
<glyph d="M369 527q135 0 180 -110q19 -46 19 -105v-312h-140v292q0 94 -75 109q-13 2 -26 2q-67 0 -98 -62q-15 -31 -15 -67v-274h-140v727h140v-261h20q37 57 125 61h10z" glyph-name="h" horiz-adv-x="635" unicode="h"/>
<glyph d="M217 600h-144v127h144v-127zM215 514v-514h-140v514h140z" glyph-name="i" horiz-adv-x="290" unicode="i"/>
<glyph d="M29 -200h-65v117h46q75 2 76 79v518h140v-530q0 -155 -144 -180q-25 -4 -53 -4zM228 600h-144v127h144v-127z" glyph-name="j" horiz-adv-x="301" unicode="j"/>
<glyph d="M588 0h-147l-122 241h-20l-85 -94v-147h-140v727h140v-417l191 204h156l-146 -162z" glyph-name="k" horiz-adv-x="599" unicode="k"/>
<glyph d="M74 727h140v-727h-140v727z" glyph-name="l" horiz-adv-x="288" unicode="l"/>
<glyph d="M655 527q162 0 181 -164q3 -22 3 -45v-318h-140v298q-2 104 -77 105q-69 0 -89 -68q-6 -22 -6 -46v-289h-140v297q-2 105 -78 106q-67 0 -88 -73q-7 -25 -7 -54v-276h-140v514h136v-48h20q40 60 132 61q90 -1 133 -62h20q46 62 140 62z" glyph-name="m" horiz-adv-x="906" unicode="m"/>
<glyph d="M369 527q135 0 180 -110q19 -46 19 -105v-312h-140v292q0 94 -75 109q-13 2 -26 2q-67 0 -98 -62q-15 -31 -15 -67v-274h-140v514h136v-48h20q36 53 118 60q11 1 21 1z" glyph-name="n" horiz-adv-x="635" unicode="n"/>
<glyph d="M311 527q143 0 216 -101q50 -70 50 -169q0 -144 -97 -218q-69 -52 -169 -52q-142 0 -215 99q-51 71 -51 171q0 143 96 217q70 53 170 53zM311 103q89 0 116 87q10 31 10 67q0 100 -62 137q-28 16 -64 16q-86 0 -115 -84q-11 -31 -11 -69q0 -100 62 -137q28 -17 64 -17z " glyph-name="o" unicode="o"/>
<glyph d="M370 -13q-90 1 -136 61h-20v-248h-140v714h136v-48h20q50 61 140 61q123 0 185 -103q42 -70 42 -167q0 -144 -85 -218q-59 -52 -142 -52zM334 411q-85 0 -114 -84q-11 -32 -11 -70q0 -98 61 -136q28 -17 64 -17q87 0 114 86q9 31 9 67q0 104 -64 140q-26 14 -59 14z" glyph-name="p" horiz-adv-x="642" unicode="p"/>
<glyph d="M272 -13q-120 0 -183 100q-44 71 -44 170q0 145 85 219q59 51 142 51q91 -1 140 -61h20v48h136v-714h-140v248h-20q-47 -61 -136 -61zM308 411q-86 0 -113 -86q-10 -31 -10 -68q0 -106 66 -140q26 -13 57 -13q86 0 114 84q11 32 11 69q0 97 -59 135q-28 19 -66 19z" glyph-name="q" horiz-adv-x="642" unicode="q"/>
<glyph d="M416 514v-130h-45q-156 -2 -157 -159v-225h-140v514h135v-59h20q47 57 142 59h45z" glyph-name="r" horiz-adv-x="443" unicode="r"/>
<glyph d="M337 319q169 -26 170 -165q0 -80 -73 -127q-62 -40 -155 -40q-186 0 -231 123q-8 25 -11 52h139q12 -66 102 -67q84 6 89 56q0 36 -42 49q-15 4 -36 8l-92 16q-137 31 -141 142q0 92 86 135q54 26 132 26q134 0 191 -81q22 -33 27 -73h-139q-9 46 -84 46q-58 0 -71 -31 q-2 -7 -2 -13q0 -30 49 -40q7 -2 13 -3z" glyph-name="s" horiz-adv-x="546" unicode="s"/>
<glyph d="M255 514h129v-117h-129v-222q2 -55 65 -56h64v-119h-71q-126 0 -168 50q-30 37 -30 103v244h-91v117h91v144h140v-144z" glyph-name="t" horiz-adv-x="437" unicode="t"/>
<glyph d="M264 -13q-137 0 -180 115q-17 44 -17 100v312h140v-292q0 -100 82 -110q9 -1 17 -1q68 0 98 63q14 30 14 66v274h140v-514h-136v48h-20q-37 -55 -122 -60q-9 -1 -16 -1z" glyph-name="u" horiz-adv-x="632" unicode="u"/>
<glyph d="M167 0l-148 514h145l108 -389h37l104 389h145l-150 -514h-241z" glyph-name="v" horiz-adv-x="578" unicode="v"/>
<glyph d="M309 373h135l70 -212h20l46 353h131l-74 -514h-173l-79 241h-20l-79 -241h-174l-73 514h133l47 -353h20z" glyph-name="w" horiz-adv-x="750" unicode="w"/>
<glyph d="M418 0l-101 189h-32l-103 -189h-149l148 264l-133 250h146l93 -177h32l95 177h144l-135 -248l147 -266h-152z" glyph-name="x" horiz-adv-x="603" unicode="x"/>
<glyph d="M267 -200h-140l109 253l-218 461h146l128 -274h26l118 274h141z" glyph-name="y" horiz-adv-x="594" unicode="y"/>
<glyph d="M504 0h-454v136l258 241v20h-242v117h430v-137l-258 -241v-20h266v-116z" glyph-name="z" horiz-adv-x="554" unicode="z"/>
<glyph d="M201 319v-20q58 -18 66 -92q1 -11 1 -21v-118q9 -101 89 -106h35v-103h-56q-117 0 -165 84q-24 43 -24 99v118q0 85 -55 94q-8 1 -16 1h-24v108h24q62 0 70 68q1 13 1 27v118q0 109 82 157q46 26 107 26h56v-103h-35q-81 0 -88 -87q-1 -9 -1 -19v-118q0 -85 -59 -110 q-4 -2 -8 -3z" glyph-name="braceleft" horiz-adv-x="427" unicode="{"/>
<glyph d="M79 -141v900h112v-900h-112z" glyph-name="bar" horiz-adv-x="270" unicode="|"/>
<glyph d="M226 299v20q-58 18 -66 92q-1 11 -1 21v118q-9 101 -89 106h-35v103h56q117 0 165 -84q24 -43 24 -99v-118q0 -85 55 -94q8 -1 16 -1h24v-108h-24q-62 0 -70 -68q-1 -13 -1 -27v-118q0 -109 -82 -157q-46 -26 -107 -26h-56v103h35q81 0 88 87q1 9 1 19v118q0 85 59 110 q4 2 8 3z" glyph-name="braceright" horiz-adv-x="427" unicode="}"/>
<glyph d="M493 387h99q0 -129 -75 -176q-32 -19 -70 -19q-49 0 -122 45q-2 2 -4 3q-57 36 -85 36q-58 -2 -59 -84h-99q0 129 75 176q32 19 70 19q53 0 127 -48q2 -1 3 -2q55 -33 81 -33q56 7 59 83z" glyph-name="asciitilde" horiz-adv-x="671" unicode="~"/>
<glyph glyph-name="uni00A0" horiz-adv-x="278" unicode=" "/>
<glyph d="M243 -200h-141v290l26 209h89l26 -209v-290zM249 362h-153v152h153v-152z" glyph-name="exclamdown" horiz-adv-x="345" unicode="¡"/>
<glyph d="M264 -80v70q-130 15 -187 124q-32 62 -32 143q0 146 96 220q53 38 123 47v70h73v-69q119 -12 171 -99q21 -35 27 -76h-139q-16 47 -59 60v-307q52 14 64 70h138q-12 -103 -102 -154q-45 -24 -100 -30v-69h-73zM181 258q0 -106 63 -144q10 -5 20 -9v302q-68 -22 -81 -115 q-2 -17 -2 -34z" glyph-name="cent" horiz-adv-x="583" unicode="¢"/>
<glyph d="M250 125h364v-125h-568v125h17q65 0 69 74v12v62h-85v112h85v99q0 136 94 195q56 35 134 35q143 0 200 -104q27 -49 29 -113h-144q-5 88 -83 89q-85 -2 -86 -102v-99h214v-112h-214v-53q-1 -52 -26 -75v-20z" glyph-name="sterling" horiz-adv-x="647" unicode="£"/>
<glyph d="M581 0l-69 67q-68 -48 -150 -48q-83 1 -152 48l-68 -67l-63 62l67 68q-48 71 -48 153q1 83 48 151l-67 68l63 63l68 -68q69 48 152 48q83 -1 150 -48l69 68l62 -63l-67 -69q48 -69 48 -150q-1 -82 -48 -152l67 -69zM362 104q84 0 134 68q35 48 35 111q0 89 -65 140 q-46 36 -104 36q-85 0 -136 -66q-36 -48 -36 -110q0 -91 67 -143q46 -36 105 -36z" glyph-name="currency" horiz-adv-x="722" unicode="¤"/>
<glyph d="M81 317v69h94l-150 314h144l144 -314h28l145 314h144l-150 -314h93v-69h-126l-29 -61h155v-69h-174v-187h-144v187h-174v69h156l-30 61h-126z" glyph-name="yen" horiz-adv-x="655" unicode="¥"/>
<glyph d="M79 407v352h112v-352h-112zM79 -141v352h112v-352h-112z" glyph-name="brokenbar" horiz-adv-x="270" unicode="¦"/>
<glyph d="M237 366q-39 -13 -52 -50q-4 -12 -4 -24q2 -56 69 -75q17 -6 145 -43q43 20 52 58q2 9 2 16q0 50 -54 70q-7 3 -14 5q-5 2 -144 43zM577 269q0 -73 -63 -117q-15 -11 -29 -16v-20q48 -39 49 -114q0 -88 -79 -138q-61 -38 -148 -38q-138 0 -197 93q-30 48 -33 113h129 q6 -86 91 -94q8 -1 16 -1q75 0 89 50q3 10 3 19q0 48 -66 67q-1 1 -2 1l-131 36q-125 35 -147 116q-6 21 -6 45q0 76 64 118q15 10 30 15v20q-49 38 -49 114q0 92 81 141q59 35 144 35q139 0 198 -94q28 -47 31 -110h-128q-8 92 -107 93q-74 0 -89 -50q-2 -9 -2 -18 q2 -49 67 -69q148 -43 170 -51q83 -32 104 -86q10 -26 10 -60z" glyph-name="section" horiz-adv-x="631" unicode="§"/>
<glyph d="M354 602h-117v125h117v-125zM158 602h-118v125h118v-125z" glyph-name="dieresis" horiz-adv-x="394" unicode="¨"/>
<glyph d="M514 298h87q-15 -90 -91 -124q-35 -15 -77 -15q-112 0 -160 90q-25 47 -25 107q0 114 76 167q46 31 109 31q102 0 145 -74q15 -25 20 -55h-88q-14 51 -77 52q-78 0 -93 -85q-3 -17 -3 -36q0 -98 67 -116q14 -4 29 -4q69 1 81 62zM425 727q156 0 263 -104 q106 -110 108 -266q0 -158 -106 -264q-107 -106 -265 -106t-264 106t-106 264t106 263q109 105 264 107zM425 47q140 0 228 98q78 87 78 212q0 140 -94 230q-87 81 -212 81q-140 0 -227 -98q-77 -88 -77 -213q0 -142 95 -231q85 -79 209 -79z" glyph-name="copyright" horiz-adv-x="850" unicode="©"/>
<glyph d="M292 335v33h-16q-40 -42 -108 -42q-84 0 -118 64q-15 29 -15 61q0 69 58 104q38 21 92 21h103v12q-2 57 -70 58q-59 -1 -67 -43h-94q4 71 75 102q37 16 82 16q143 0 164 -105q3 -16 3 -34v-247h-89zM198 403q56 0 80 43q10 18 10 39v27h-83q-60 0 -73 -38q-3 -8 -3 -16 q0 -45 50 -54q10 -1 19 -1z" glyph-name="ordfeminine" horiz-adv-x="438" unicode="ª"/>
<glyph d="M181 299v-20l171 -186h-151l-149 158v76l149 157h151zM434 299v-20l171 -186h-151l-149 158v76l149 157h151z" glyph-name="guillemotleft" horiz-adv-x="657" unicode="«"/>
<glyph d="M485 100v192h-406v119h524v-311h-118z" glyph-name="logicalnot" horiz-adv-x="682" unicode="¬"/>
<glyph d="M349 222h-303v121h303v-121z" glyph-name="uni00AD" horiz-adv-x="396" unicode="­"/>
<glyph d="M462 547q103 0 128 -77q6 -20 6 -43q-1 -69 -55 -101l57 -160h-88l-51 142h-93v-142h-86v381h182zM448 381q59 1 60 45q-2 45 -60 46h-82v-91h82zM425 727q156 0 263 -104q106 -110 108 -266q0 -158 -106 -264q-107 -106 -265 -106t-264 106t-106 264t106 263 q109 105 264 107zM425 47q140 0 228 98q78 87 78 212q0 140 -94 230q-87 81 -212 81q-140 0 -227 -98q-77 -88 -77 -213q0 -142 95 -231q85 -79 209 -79z" glyph-name="registered" horiz-adv-x="850" unicode="®"/>
<glyph d="M342 617h-302v89h302v-89z" glyph-name="macron" horiz-adv-x="382" unicode="¯"/>
<glyph d="M429 523q0 -99 -74 -156q-53 -41 -124 -41q-98 0 -155 73q-41 53 -41 124q0 99 73 156q53 42 123 42q98 0 156 -72q42 -55 42 -126zM231 410q63 0 93 53q15 28 15 60q0 65 -49 97q-27 17 -59 17q-62 0 -92 -53q-15 -28 -15 -61q0 -66 51 -98q25 -15 56 -15z" glyph-name="degree" horiz-adv-x="464" unicode="°"/>
<glyph d="M277 404v165h118v-165h199v-119h-199v-166h199v-119h-515v119h198v166h-197v119h197z" glyph-name="plusminus" horiz-adv-x="673" unicode="±"/>
<glyph d="M178 411h156v-78h-299v91l107 69q86 56 87 98q-7 45 -51 49q-53 -2 -55 -51h-91q3 97 90 124q27 8 59 8q92 0 125 -64q14 -27 14 -61q-1 -77 -87 -134l-55 -37v-14z" glyph-name="twosuperior" horiz-adv-x="370" unicode="²"/>
<glyph d="M245 563q56 -7 79 -57q10 -22 10 -49q0 -78 -69 -113q-36 -18 -82 -18q-93 0 -134 64q-19 30 -20 67h90q11 -47 64 -50q52 0 60 40q1 6 1 12q0 46 -48 52q-6 1 -12 1q-22 0 -37 -5v69l59 46v14h-151v78h260v-90l-70 -47v-14z" glyph-name="threesuperior" horiz-adv-x="369" unicode="³"/>
<glyph d="M280 727l-117 -145h-123l92 145h148z" glyph-name="acute" horiz-adv-x="320" unicode="´"/>
<glyph d="M271 -13q-28 0 -57 7v-194h-140v714h140v-292q0 -100 82 -110q9 -1 17 -1q68 0 98 63q14 30 14 66v274h140v-514h-136v48h-20q-37 -55 -122 -60q-9 -1 -16 -1z" glyph-name="mu" horiz-adv-x="639" unicode="µ"/>
<glyph d="M372 -177h-118v491q-133 0 -189 85q-31 48 -31 115q0 156 140 191q36 9 80 9h414v-98h-80v-793h-118v793h-98v-793z" glyph-name="paragraph" horiz-adv-x="712" unicode="¶"/>
<glyph d="M223 264h-154v152h154v-152z" glyph-name="periodcentered" horiz-adv-x="293" unicode="·"/>
<glyph d="M105 22h56l-30 -80h13q14 10 38 10q46 0 67 -42q9 -20 9 -44q0 -58 -52 -83q-26 -12 -61 -12q-70 0 -96 50q-8 15 -9 31h72q7 -24 35 -25q30 0 35 27q1 4 1 8q0 28 -28 33q-4 1 -8 1q-19 -1 -31 -12h-63z" glyph-name="cedilla" horiz-adv-x="297" unicode="¸"/>
<glyph d="M216 411h84v-78h-265v78h90v208h-14l-76 -43v85l95 53h86v-303z" glyph-name="onesuperior" horiz-adv-x="336" unicode="¹"/>
<glyph d="M227 721q107 0 160 -82q32 -50 32 -115q0 -107 -75 -162q-49 -36 -117 -36q-106 0 -159 81q-33 50 -33 117q0 104 74 160q50 37 118 37zM227 409q69 0 91 67q7 22 7 48q0 74 -50 102q-22 12 -48 12q-67 0 -90 -65q-8 -23 -8 -49q0 -74 50 -103q21 -12 48 -12z" glyph-name="ordmasculine" horiz-adv-x="455" unicode="º"/>
<glyph d="M476 279v20l-171 185h151l149 -157v-76l-149 -158h-151zM223 279v20l-171 185h151l149 -157v-76l-149 -158h-151z" glyph-name="guillemotright" horiz-adv-x="657" unicode="»"/>
<glyph d="M284 0h-102l424 700h101zM216 411h84v-78h-265v78h90v208h-14l-76 -43v85l95 53h86v-303zM794 154h46v-78h-46v-76h-88v76h-181v92l164 213h105v-227zM609 154h100v126h-14l-86 -112v-14z" glyph-name="onequarter" horiz-adv-x="876" unicode="¼"/>
<glyph d="M284 0h-102l424 700h101zM216 411h84v-78h-265v78h90v208h-14l-76 -43v85l95 53h86v-303zM706 78h156v-78h-299v91l107 69q86 56 87 98q-7 45 -51 49q-53 -2 -55 -51h-91q3 97 90 124q27 8 59 8q92 0 125 -64q14 -27 14 -61q-1 -77 -87 -134l-55 -37v-14z" glyph-name="onehalf" horiz-adv-x="898" unicode="½"/>
<glyph d="M289 0h-102l424 700h101zM799 154h46v-78h-46v-76h-88v76h-181v92l164 213h105v-227zM614 154h100v126h-14l-86 -112v-14zM244 563q56 -7 79 -57q10 -22 10 -49q0 -78 -69 -113q-36 -18 -82 -18q-93 0 -134 64q-19 30 -20 67h90q11 -47 64 -50q52 0 60 40q1 6 1 12 q0 46 -48 52q-6 1 -12 1q-22 0 -37 -5v69l59 46v14h-151v78h260v-90l-70 -47v-14z" glyph-name="threequarters" horiz-adv-x="880" unicode="¾"/>
<glyph d="M230 514h153v-152h-153v152zM294 -211q-154 0 -215 98q-30 47 -30 107q0 84 63 139q19 17 58 44q48 32 58 56q6 15 6 36v30h143v-30q0 -73 -44 -120q-20 -20 -54 -46q-53 -39 -58 -44q-27 -27 -27 -64q0 -51 47 -72q22 -10 49 -10q101 0 105 103v2h143q-2 -124 -91 -186 q-62 -43 -153 -43z" glyph-name="questiondown" horiz-adv-x="576" unicode="¿"/>
<glyph d="M553 0l-58 193h-272l-58 -193h-147l227 714h231l228 -714h-151zM336 571l-75 -248h194l-75 248h-44zM298 767l-116 129h152l92 -129h-128z" glyph-name="Agrave" horiz-adv-x="722" unicode="À"/>
<glyph d="M553 0l-58 193h-272l-58 -193h-147l227 714h231l228 -714h-151zM336 571l-75 -248h194l-75 248h-44zM537 896l-117 -129h-127l91 129h153z" glyph-name="Aacute" horiz-adv-x="722" unicode="Á"/>
<glyph d="M553 0l-58 193h-272l-58 -193h-147l227 714h231l228 -714h-151zM336 571l-75 -248h194l-75 248h-44zM420 896l112 -129h-115l-48 53h-20l-47 -53h-113l112 129h119z" glyph-name="Acircumflex" horiz-adv-x="722" unicode="Â"/>
<glyph d="M553 0l-58 193h-272l-58 -193h-147l227 714h231l228 -714h-151zM336 571l-75 -248h194l-75 248h-44zM427 851q34 2 35 46h64q0 -113 -76 -129q-12 -2 -24 -2q-35 0 -82 25q-4 2 -13 7q-27 15 -42 15q-33 -2 -34 -47h-64q0 117 81 130q9 1 18 1q39 0 88 -27q35 -19 49 -19 z" glyph-name="Atilde" horiz-adv-x="722" unicode="Ã"/>
<glyph d="M553 0l-58 193h-272l-58 -193h-147l227 714h231l228 -714h-151zM336 571l-75 -248h194l-75 248h-44zM520 782h-117v114h117v-114zM324 782h-118v114h118v-114z" glyph-name="Adieresis" horiz-adv-x="722" unicode="Ä"/>
<glyph d="M553 0l-58 193h-272l-58 -193h-147l227 714h10q-12 22 -12 51q0 60 52 95q30 20 66 20q64 0 98 -51q20 -29 20 -64q0 -26 -12 -51h9l228 -714h-151zM336 571l-75 -248h194l-75 248h-44zM361 714q32 0 46 29q5 11 5 22q0 32 -29 46q-11 5 -22 5q-31 0 -45 -29 q-5 -11 -5 -22q0 -32 29 -46q11 -5 21 -5z" glyph-name="Aring" horiz-adv-x="722" unicode="Å"/>
<glyph d="M519 0v193h-248l-100 -193h-167l384 714h608v-133h-328v-150h244v-130h-244v-168h339v-133h-488zM470 575l-132 -252h181v252h-49z" glyph-name="AE" horiz-adv-x="1051" unicode="Æ"/>
<glyph d="M534 228h155q-21 -135 -131 -199q-69 -40 -160 -42l-17 -45h13q14 10 38 10q46 0 67 -42q9 -20 9 -44q0 -58 -52 -83q-26 -12 -61 -12q-70 0 -96 50q-8 15 -9 31h72q7 -24 35 -25q30 0 35 27q1 4 1 8q0 28 -28 33q-4 1 -8 1q-19 -1 -31 -12h-63l40 106q-167 18 -244 155 q-50 90 -50 212q0 190 114 291q90 79 228 79q155 0 237 -102q41 -52 54 -119h-156q-28 87 -135 88q-120 0 -166 -111q-23 -55 -23 -126q0 -141 80 -203q46 -34 109 -34q98 0 133 76q7 16 10 32z" glyph-name="Ccedilla" horiz-adv-x="737" unicode="Ç"/>
<glyph d="M232 133h390v-133h-539v714h528v-133h-379v-150h295v-130h-295v-168zM307 767l-116 129h152l92 -129h-128z" glyph-name="Egrave" horiz-adv-x="666" unicode="È"/>
<glyph d="M232 133h390v-133h-539v714h528v-133h-379v-150h295v-130h-295v-168zM490 896l-117 -129h-127l91 129h153z" glyph-name="Eacute" horiz-adv-x="666" unicode="É"/>
<glyph d="M232 133h390v-133h-539v714h528v-133h-379v-150h295v-130h-295v-168zM409 896l112 -129h-115l-48 53h-20l-47 -53h-113l112 129h119z" glyph-name="Ecircumflex" horiz-adv-x="666" unicode="Ê"/>
<glyph d="M232 133h390v-133h-539v714h528v-133h-379v-150h295v-130h-295v-168zM504 782h-117v114h117v-114zM308 782h-118v114h118v-114z" glyph-name="Edieresis" horiz-adv-x="666" unicode="Ë"/>
<glyph d="M88 714h149v-714h-149v714zM101 767l-116 129h152l92 -129h-128z" glyph-name="Igrave" horiz-adv-x="325" unicode="Ì"/>
<glyph d="M88 714h149v-714h-149v714zM343 896l-117 -129h-127l91 129h153z" glyph-name="Iacute" horiz-adv-x="325" unicode="Í"/>
<glyph d="M88 714h149v-714h-149v714zM223 896l112 -129h-115l-48 53h-20l-47 -53h-113l112 129h119z" glyph-name="Icircumflex" horiz-adv-x="325" unicode="Î"/>
<glyph d="M88 714h149v-714h-149v714zM320 782h-117v114h117v-114zM124 782h-118v114h118v-114z" glyph-name="Idieresis" horiz-adv-x="325" unicode="Ï"/>
<glyph d="M20 305v114h84v295h298q202 0 285 -151q46 -85 46 -206q0 -207 -128 -299q-81 -58 -203 -58h-298v305h-84zM383 133q150 0 187 139q10 39 10 85q0 165 -112 209q-38 15 -85 15h-130v-162h176v-114h-176v-172h130z" glyph-name="Eth" horiz-adv-x="782" unicode="Ð"/>
<glyph d="M564 714h136v-714h-186l-275 492h-20v-492h-136v714h186l275 -492h20v492zM460 851q34 2 35 46h64q0 -113 -76 -129q-12 -2 -24 -2q-35 0 -82 25q-4 2 -13 7q-27 15 -42 15q-33 -2 -34 -47h-64q0 117 81 130q9 1 18 1q39 0 88 -27q35 -19 49 -19z" glyph-name="Ntilde" horiz-adv-x="782" unicode="Ñ"/>
<glyph d="M397 727q186 0 280 -133q68 -97 68 -237q0 -181 -108 -283q-93 -87 -240 -87q-186 0 -280 133q-68 97 -68 237q0 181 108 283q93 87 240 87zM397 120q127 0 174 116q21 53 21 121q0 144 -84 204q-46 33 -111 33q-125 0 -172 -113q-23 -54 -23 -124q0 -141 82 -203 q47 -34 113 -34zM339 767l-116 129h152l92 -129h-128z" glyph-name="Ograve" horiz-adv-x="794" unicode="Ò"/>
<glyph d="M397 727q186 0 280 -133q68 -97 68 -237q0 -181 -108 -283q-93 -87 -240 -87q-186 0 -280 133q-68 97 -68 237q0 181 108 283q93 87 240 87zM397 120q127 0 174 116q21 53 21 121q0 144 -84 204q-46 33 -111 33q-125 0 -172 -113q-23 -54 -23 -124q0 -141 82 -203 q47 -34 113 -34zM576 896l-117 -129h-127l91 129h153z" glyph-name="Oacute" horiz-adv-x="794" unicode="Ó"/>
<glyph d="M397 727q186 0 280 -133q68 -97 68 -237q0 -181 -108 -283q-93 -87 -240 -87q-186 0 -280 133q-68 97 -68 237q0 181 108 283q93 87 240 87zM397 120q127 0 174 116q21 53 21 121q0 144 -84 204q-46 33 -111 33q-125 0 -172 -113q-23 -54 -23 -124q0 -141 82 -203 q47 -34 113 -34zM458 896l112 -129h-115l-48 53h-20l-47 -53h-113l112 129h119z" glyph-name="Ocircumflex" horiz-adv-x="794" unicode="Ô"/>
<glyph d="M397 727q186 0 280 -133q68 -97 68 -237q0 -181 -108 -283q-93 -87 -240 -87q-186 0 -280 133q-68 97 -68 237q0 181 108 283q93 87 240 87zM397 120q127 0 174 116q21 53 21 121q0 144 -84 204q-46 33 -111 33q-125 0 -172 -113q-23 -54 -23 -124q0 -141 82 -203 q47 -34 113 -34zM467 851q34 2 35 46h64q0 -113 -76 -129q-12 -2 -24 -2q-35 0 -82 25q-4 2 -13 7q-27 15 -42 15q-33 -2 -34 -47h-64q0 117 81 130q9 1 18 1q39 0 88 -27q35 -19 49 -19z" glyph-name="Otilde" horiz-adv-x="794" unicode="Õ"/>
<glyph d="M397 727q186 0 280 -133q68 -97 68 -237q0 -181 -108 -283q-93 -87 -240 -87q-186 0 -280 133q-68 97 -68 237q0 181 108 283q93 87 240 87zM397 120q127 0 174 116q21 53 21 121q0 144 -84 204q-46 33 -111 33q-125 0 -172 -113q-23 -54 -23 -124q0 -141 82 -203 q47 -34 113 -34zM555 782h-117v114h117v-114zM359 782h-118v114h118v-114z" glyph-name="Odieresis" horiz-adv-x="794" unicode="Ö"/>
<glyph d="M246 289l-167 168l83 83l167 -167l168 167l82 -83l-166 -167l166 -169l-82 -82l-168 167l-166 -166l-83 82z" glyph-name="multiply" horiz-adv-x="658" unicode="×"/>
<glyph d="M397 727q119 -1 203 -57l37 44h111l-85 -102q82 -101 82 -255q0 -181 -108 -283q-93 -87 -240 -87q-118 1 -203 57l-36 -44h-112l84 102q-81 98 -81 255q0 181 108 283q93 87 240 87zM202 357q0 -78 27 -135l280 338q-46 34 -112 34q-125 0 -172 -113q-23 -54 -23 -124z M397 120q127 0 174 116q21 53 21 121q0 79 -28 135l-279 -339q46 -33 112 -33z" glyph-name="Oslash" horiz-adv-x="794" unicode="Ø"/>
<glyph d="M530 714h149v-451q0 -180 -140 -245q-67 -31 -160 -31q-196 0 -266 132q-32 61 -32 144v451h149v-448q0 -97 77 -132q32 -14 73 -14q105 0 138 81q12 30 12 65v448zM328 767l-116 129h152l92 -129h-128z" glyph-name="Ugrave" horiz-adv-x="760" unicode="Ù"/>
<glyph d="M530 714h149v-451q0 -180 -140 -245q-67 -31 -160 -31q-196 0 -266 132q-32 61 -32 144v451h149v-448q0 -97 77 -132q32 -14 73 -14q105 0 138 81q12 30 12 65v448zM541 896l-117 -129h-127l91 129h153z" glyph-name="Uacute" horiz-adv-x="760" unicode="Ú"/>
<glyph d="M530 714h149v-451q0 -180 -140 -245q-67 -31 -160 -31q-196 0 -266 132q-32 61 -32 144v451h149v-448q0 -97 77 -132q32 -14 73 -14q105 0 138 81q12 30 12 65v448zM440 896l112 -129h-115l-48 53h-20l-47 -53h-113l112 129h119z" glyph-name="Ucircumflex" horiz-adv-x="760" unicode="Û"/>
<glyph d="M530 714h149v-451q0 -180 -140 -245q-67 -31 -160 -31q-196 0 -266 132q-32 61 -32 144v451h149v-448q0 -97 77 -132q32 -14 73 -14q105 0 138 81q12 30 12 65v448zM537 782h-117v114h117v-114zM341 782h-118v114h118v-114z" glyph-name="Udieresis" horiz-adv-x="760" unicode="Ü"/>
<glyph d="M325 429h28l153 285h158l-250 -460v-254h-150v254l-249 460h157zM509 896l-117 -129h-127l91 129h153z" glyph-name="Yacute" horiz-adv-x="679" unicode="Ý"/>
<glyph d="M386 578q161 0 220 -106q28 -49 28 -115q0 -136 -108 -191q-59 -30 -140 -30h-154v-136h-149v714h149v-136h154zM366 267q113 3 115 91q0 78 -87 88q-13 1 -28 1h-134v-180h134z" glyph-name="Thorn" horiz-adv-x="682" unicode="Þ"/>
<glyph d="M484 384q72 -22 104 -94q17 -38 17 -81q0 -130 -102 -182q-54 -27 -125 -27h-68v116h42q97 0 111 78q2 12 2 25q0 94 -95 108q-15 2 -31 2h-13v116h13q67 0 83 57q3 13 3 27q0 59 -50 78q-18 7 -38 7q-94 -2 -95 -116v-498h-140v397h-86v117h87q0 129 102 185 q57 31 135 31q121 0 183 -75q40 -50 40 -116q0 -77 -52 -120q-13 -10 -27 -16v-19z" glyph-name="germandbls" horiz-adv-x="643" unicode="ß"/>
<glyph d="M389 0v44h-20q-50 -57 -144 -57q-111 0 -161 78q-26 42 -26 93q0 85 68 133q55 38 141 38h137v13q-2 79 -91 80q-80 -1 -87 -55h-139q4 90 92 134q54 26 127 26q212 0 231 -161q2 -16 2 -32v-334h-130zM269 98q69 0 100 52q15 26 15 56v30h-110q-95 -1 -96 -67 q0 -64 75 -70q8 -1 16 -1zM251 582l-116 145h147l93 -145h-124z" glyph-name="agrave" horiz-adv-x="586" unicode="à"/>
<glyph d="M389 0v44h-20q-50 -57 -144 -57q-111 0 -161 78q-26 42 -26 93q0 85 68 133q55 38 141 38h137v13q-2 79 -91 80q-80 -1 -87 -55h-139q4 90 92 134q54 26 127 26q212 0 231 -161q2 -16 2 -32v-334h-130zM269 98q69 0 100 52q15 26 15 56v30h-110q-95 -1 -96 -67 q0 -64 75 -70q8 -1 16 -1zM451 727l-117 -145h-123l92 145h148z" glyph-name="aacute" horiz-adv-x="586" unicode="á"/>
<glyph d="M389 0v44h-20q-50 -57 -144 -57q-111 0 -161 78q-26 42 -26 93q0 85 68 133q55 38 141 38h137v13q-2 79 -91 80q-80 -1 -87 -55h-139q4 90 92 134q54 26 127 26q212 0 231 -161q2 -16 2 -32v-334h-130zM269 98q69 0 100 52q15 26 15 56v30h-110q-95 -1 -96 -67 q0 -64 75 -70q8 -1 16 -1zM355 727l113 -145h-109l-54 64h-20l-52 -64h-108l113 145h117z" glyph-name="acircumflex" horiz-adv-x="586" unicode="â"/>
<glyph d="M389 0v44h-20q-50 -57 -144 -57q-111 0 -161 78q-26 42 -26 93q0 85 68 133q55 38 141 38h137v13q-2 79 -91 80q-80 -1 -87 -55h-139q4 90 92 134q54 26 127 26q212 0 231 -161q2 -16 2 -32v-334h-130zM269 98q69 0 100 52q15 26 15 56v30h-110q-95 -1 -96 -67 q0 -64 75 -70q8 -1 16 -1zM374 672q34 2 35 53h64q0 -122 -77 -139q-11 -2 -23 -2q-34 0 -80 29l-2 1q-38 23 -55 23q-33 -2 -34 -53h-64q0 126 81 140q9 1 18 1q36 0 86 -32l1 -1q31 -20 50 -20z" glyph-name="atilde" horiz-adv-x="586" unicode="ã"/>
<glyph d="M389 0v44h-20q-50 -57 -144 -57q-111 0 -161 78q-26 42 -26 93q0 85 68 133q55 38 141 38h137v13q-2 79 -91 80q-80 -1 -87 -55h-139q4 90 92 134q54 26 127 26q212 0 231 -161q2 -16 2 -32v-334h-130zM269 98q69 0 100 52q15 26 15 56v30h-110q-95 -1 -96 -67 q0 -64 75 -70q8 -1 16 -1zM459 602h-117v125h117v-125zM263 602h-118v125h118v-125z" glyph-name="adieresis" horiz-adv-x="586" unicode="ä"/>
<glyph d="M389 0v44h-20q-50 -57 -144 -57q-111 0 -161 78q-26 42 -26 93q0 85 68 133q55 38 141 38h137v13q-2 79 -91 80q-80 -1 -87 -55h-139q4 90 92 134q54 26 127 26q212 0 231 -161q2 -16 2 -32v-334h-130zM269 98q69 0 100 52q15 26 15 56v30h-110q-95 -1 -96 -67 q0 -64 75 -70q8 -1 16 -1zM296 801q64 0 98 -51q20 -29 20 -64q0 -62 -52 -96q-30 -19 -66 -19q-61 0 -97 50q-21 30 -21 65q0 60 52 95q30 20 66 20zM296 636q34 0 47 30q4 10 4 20q0 32 -29 46q-11 5 -22 5q-31 0 -45 -29q-5 -11 -5 -22q0 -33 30 -46q10 -4 20 -4z" glyph-name="aring" horiz-adv-x="586" unicode="å"/>
<glyph d="M872 236h-363q7 -106 85 -128q17 -5 37 -5q72 1 94 54h142q-31 -148 -189 -167q-23 -3 -47 -3q-118 0 -186 84q-2 2 -3 4h-18q-58 -75 -160 -86q-15 -2 -29 -2q-123 0 -173 81q-24 39 -24 88q0 103 90 148q51 25 123 25h125v13q-2 79 -88 80q-73 -1 -82 -55h-139 q5 92 92 134q53 26 123 26q112 -1 168 -65h19q64 65 165 65q129 0 194 -97q42 -63 44 -150v-44zM376 203v33h-103q-94 -1 -95 -68q0 -61 68 -69q9 -1 19 -1q72 0 100 55q11 23 11 50zM627 422q-90 -1 -111 -93h214q-12 85 -89 92q-7 1 -14 1z" glyph-name="ae" horiz-adv-x="917" unicode="æ"/>
<glyph d="M401 173h138q-12 -104 -104 -154q-56 -31 -127 -32l-17 -45h13q14 10 38 10q46 0 67 -42q9 -20 9 -44q0 -58 -52 -83q-26 -12 -61 -12q-70 0 -96 50q-8 15 -9 31h72q7 -24 35 -25q30 0 35 27q1 4 1 8q0 28 -28 33q-4 1 -8 1q-19 -1 -31 -12h-63l40 107q-125 19 -178 128 q-30 61 -30 138q0 146 97 220q67 50 162 50q128 0 192 -82q32 -42 39 -95h-139q-19 59 -91 60q-93 0 -114 -98q-6 -25 -6 -54q0 -113 69 -145q23 -10 51 -10q81 0 95 67q1 2 1 3z" glyph-name="ccedilla" horiz-adv-x="583" unicode="ç"/>
<glyph d="M552 283v-42h-368q11 -135 125 -138q75 1 96 54h142q-24 -119 -140 -156q-45 -14 -100 -14q-146 0 -216 105q-46 69 -46 167q0 151 102 223q65 45 157 45q141 0 207 -101q40 -61 41 -143zM303 422q-92 -1 -114 -88h220q-11 73 -79 86q-14 2 -27 2zM267 582l-116 145h147 l93 -145h-124z" glyph-name="egrave" horiz-adv-x="597" unicode="è"/>
<glyph d="M552 283v-42h-368q11 -135 125 -138q75 1 96 54h142q-24 -119 -140 -156q-45 -14 -100 -14q-146 0 -216 105q-46 69 -46 167q0 151 102 223q65 45 157 45q141 0 207 -101q40 -61 41 -143zM303 422q-92 -1 -114 -88h220q-11 73 -79 86q-14 2 -27 2zM475 727l-117 -145 h-123l92 145h148z" glyph-name="eacute" horiz-adv-x="597" unicode="é"/>
<glyph d="M552 283v-42h-368q11 -135 125 -138q75 1 96 54h142q-24 -119 -140 -156q-45 -14 -100 -14q-146 0 -216 105q-46 69 -46 167q0 151 102 223q65 45 157 45q141 0 207 -101q40 -61 41 -143zM303 422q-92 -1 -114 -88h220q-11 73 -79 86q-14 2 -27 2zM361 727l113 -145h-109 l-54 64h-20l-52 -64h-108l113 145h117z" glyph-name="ecircumflex" horiz-adv-x="597" unicode="ê"/>
<glyph d="M552 283v-42h-368q11 -135 125 -138q75 1 96 54h142q-24 -119 -140 -156q-45 -14 -100 -14q-146 0 -216 105q-46 69 -46 167q0 151 102 223q65 45 157 45q141 0 207 -101q40 -61 41 -143zM303 422q-92 -1 -114 -88h220q-11 73 -79 86q-14 2 -27 2zM462 602h-117v125h117 v-125zM266 602h-118v125h118v-125z" glyph-name="edieresis" horiz-adv-x="597" unicode="ë"/>
<glyph d="M215 514v-514h-140v514h140zM91 582l-116 145h147l93 -145h-124z" glyph-name="igrave" horiz-adv-x="291" unicode="ì"/>
<glyph d="M215 514v-514h-140v514h140zM324 727l-117 -145h-123l92 145h148z" glyph-name="iacute" horiz-adv-x="290" unicode="í"/>
<glyph d="M215 514v-514h-140v514h140zM204 727l113 -145h-109l-54 64h-20l-52 -64h-108l113 145h117z" glyph-name="icircumflex" horiz-adv-x="290" unicode="î"/>
<glyph d="M215 514v-514h-140v514h140zM302 602h-117v125h117v-125zM106 602h-118v125h118v-125z" glyph-name="idieresis" horiz-adv-x="290" unicode="ï"/>
<glyph d="M137 557v66h140q-49 46 -133 104h167q67 -46 119 -104h130v-66h-79q90 -133 90 -291q0 -153 -98 -228q-67 -51 -167 -51q-139 0 -212 99q-49 69 -49 163q0 128 84 200q59 50 136 51q75 -1 113 -34h20q-19 44 -59 91h-202zM308 103q92 0 115 88q7 26 7 55q0 105 -71 134 q-23 10 -51 10q-90 0 -116 -85q-8 -27 -8 -59q0 -99 67 -131q25 -12 57 -12z" glyph-name="eth" horiz-adv-x="616" unicode="ð"/>
<glyph d="M369 527q135 0 180 -110q19 -46 19 -105v-312h-140v292q0 94 -75 109q-13 2 -26 2q-67 0 -98 -62q-15 -31 -15 -67v-274h-140v514h136v-48h20q36 53 118 60q11 1 21 1zM390 672q34 2 35 53h64q0 -122 -77 -139q-11 -2 -23 -2q-34 0 -80 29l-2 1q-38 23 -55 23 q-33 -2 -34 -53h-64q0 126 81 140q9 1 18 1q36 0 86 -32l1 -1q31 -20 50 -20z" glyph-name="ntilde" horiz-adv-x="635" unicode="ñ"/>
<glyph d="M311 527q143 0 216 -101q50 -70 50 -169q0 -144 -97 -218q-69 -52 -169 -52q-142 0 -215 99q-51 71 -51 171q0 143 96 217q70 53 170 53zM311 103q89 0 116 87q10 31 10 67q0 100 -62 137q-28 16 -64 16q-86 0 -115 -84q-11 -31 -11 -69q0 -100 62 -137q28 -17 64 -17z M255 582l-116 145h147l93 -145h-124z" glyph-name="ograve" unicode="ò"/>
<glyph d="M311 527q143 0 216 -101q50 -70 50 -169q0 -144 -97 -218q-69 -52 -169 -52q-142 0 -215 99q-51 71 -51 171q0 143 96 217q70 53 170 53zM311 103q89 0 116 87q10 31 10 67q0 100 -62 137q-28 16 -64 16q-86 0 -115 -84q-11 -31 -11 -69q0 -100 62 -137q28 -17 64 -17z M484 727l-117 -145h-123l92 145h148z" glyph-name="oacute" unicode="ó"/>
<glyph d="M311 527q143 0 216 -101q50 -70 50 -169q0 -144 -97 -218q-69 -52 -169 -52q-142 0 -215 99q-51 71 -51 171q0 143 96 217q70 53 170 53zM311 103q89 0 116 87q10 31 10 67q0 100 -62 137q-28 16 -64 16q-86 0 -115 -84q-11 -31 -11 -69q0 -100 62 -137q28 -17 64 -17z M370 727l113 -145h-109l-54 64h-20l-52 -64h-108l113 145h117z" glyph-name="ocircumflex" unicode="ô"/>
<glyph d="M311 527q143 0 216 -101q50 -70 50 -169q0 -144 -97 -218q-69 -52 -169 -52q-142 0 -215 99q-51 71 -51 171q0 143 96 217q70 53 170 53zM311 103q89 0 116 87q10 31 10 67q0 100 -62 137q-28 16 -64 16q-86 0 -115 -84q-11 -31 -11 -69q0 -100 62 -137q28 -17 64 -17z M379 672q34 2 35 53h64q0 -122 -77 -139q-11 -2 -23 -2q-34 0 -80 29l-2 1q-38 23 -55 23q-33 -2 -34 -53h-64q0 126 81 140q9 1 18 1q36 0 86 -32l1 -1q31 -20 50 -20z" glyph-name="otilde" unicode="õ"/>
<glyph d="M311 527q143 0 216 -101q50 -70 50 -169q0 -144 -97 -218q-69 -52 -169 -52q-142 0 -215 99q-51 71 -51 171q0 143 96 217q70 53 170 53zM311 103q89 0 116 87q10 31 10 67q0 100 -62 137q-28 16 -64 16q-86 0 -115 -84q-11 -31 -11 -69q0 -100 62 -137q28 -17 64 -17z M468 602h-117v125h117v-125zM272 602h-118v125h118v-125z" glyph-name="odieresis" unicode="ö"/>
<glyph d="M423 9h-159v136h159v-136zM423 433h-159v136h159v-136zM608 230h-529v119h529v-119z" glyph-name="divide" horiz-adv-x="687" unicode="÷"/>
<glyph d="M311 527q85 0 148 -38l22 25h102l-65 -76q59 -74 59 -181q0 -144 -97 -218q-69 -52 -169 -52q-85 0 -148 38l-22 -25h-102l65 76q-59 72 -59 181q0 143 96 217q70 53 170 53zM311 100q91 0 119 89q10 31 10 68q0 40 -13 75l-184 -214q30 -18 68 -18zM182 257 q0 -43 12 -76l184 214q-30 18 -67 18q-88 0 -118 -85q-11 -32 -11 -71z" glyph-name="oslash" unicode="ø"/>
<glyph d="M264 -13q-137 0 -180 115q-17 44 -17 100v312h140v-292q0 -100 82 -110q9 -1 17 -1q68 0 98 63q14 30 14 66v274h140v-514h-136v48h-20q-37 -55 -122 -60q-9 -1 -16 -1zM266 582l-116 145h147l93 -145h-124z" glyph-name="ugrave" horiz-adv-x="632" unicode="ù"/>
<glyph d="M264 -13q-137 0 -180 115q-17 44 -17 100v312h140v-292q0 -100 82 -110q9 -1 17 -1q68 0 98 63q14 30 14 66v274h140v-514h-136v48h-20q-37 -55 -122 -60q-9 -1 -16 -1zM471 727l-117 -145h-123l92 145h148z" glyph-name="uacute" horiz-adv-x="632" unicode="ú"/>
<glyph d="M264 -13q-137 0 -180 115q-17 44 -17 100v312h140v-292q0 -100 82 -110q9 -1 17 -1q68 0 98 63q14 30 14 66v274h140v-514h-136v48h-20q-37 -55 -122 -60q-9 -1 -16 -1zM368 727l113 -145h-109l-54 64h-20l-52 -64h-108l113 145h117z" glyph-name="ucircumflex" horiz-adv-x="632" unicode="û"/>
<glyph d="M264 -13q-137 0 -180 115q-17 44 -17 100v312h140v-292q0 -100 82 -110q9 -1 17 -1q68 0 98 63q14 30 14 66v274h140v-514h-136v48h-20q-37 -55 -122 -60q-9 -1 -16 -1zM466 602h-117v125h117v-125zM270 602h-118v125h118v-125z" glyph-name="udieresis" horiz-adv-x="632" unicode="ü"/>
<glyph d="M267 -200h-140l109 253l-218 461h146l128 -274h26l118 274h141zM459 727l-117 -145h-123l92 145h148z" glyph-name="yacute" horiz-adv-x="594" unicode="ý"/>
<glyph d="M597 257q0 -144 -85 -218q-59 -52 -142 -52q-90 1 -136 61h-20v-248h-140v927h140v-261h20q47 61 136 61q120 0 183 -100q44 -71 44 -170zM457 257q0 106 -66 140q-26 13 -57 13q-86 0 -114 -84q-11 -32 -11 -69q0 -98 61 -136q28 -17 64 -17q87 0 114 86q9 31 9 67z" glyph-name="thorn" horiz-adv-x="642" unicode="þ"/>
</font>
</defs>
</svg>
