<?xml version="1.0" encoding="UTF-8"?>
<!DOCTYPE svg  PUBLIC '-//W3C//DTD SVG 1.1//EN'  'http://www.w3.org/Graphics/SVG/1.1/DTD/svg11.dtd'>
<svg version="1.1" xmlns="http://www.w3.org/2000/svg">
<defs>
<font id="Formular-Medium" horiz-adv-x="785">
<font-face font-family="Formular Medium" font-weight="500" ascent="778" bbox="-40 -221 982 900" cap-height="714" descent="-222" panose-1="2 0 0 0 0 0 0 0 0 0" underline-position="-100" underline-thickness="50" unicode-range="U+0020-00FE" units-per-em="1000" x-height="509"/>
<missing-glyph/>
<glyph glyph-name="space" horiz-adv-x="278" unicode=" "/>
<glyph d="M106 714h120v-292l-21 -220h-78l-21 220v292zM231 0h-131v134h131v-134z" glyph-name="exclam" horiz-adv-x="331" unicode="!"/>
<glyph d="M75 443v271h104v-271h-104zM254 443v271h104v-271h-104z" glyph-name="quotedbl" horiz-adv-x="433" unicode='"'/>
<glyph d="M71 513h116l34 187h90l-33 -187h124l34 187h90l-34 -187h98v-88h-112l-27 -151h100v-88h-115l-33 -186h-92l34 186h-124l-33 -186h-92l34 186h-98v88h113l28 151h-102v88zM263 425l-27 -151h124l27 151h-124z" glyph-name="numbersign" horiz-adv-x="622" unicode="#"/>
<glyph d="M396 401q154 -27 183 -148q6 -25 6 -53q0 -98 -79 -159q-63 -48 -155 -54v-85h-66v86q-160 12 -216 136q-17 38 -23 83h115q16 -84 93 -110q15 -5 31 -7v228l-42 10q-172 40 -173 184q0 95 76 154q57 43 139 48v84h67v-86q118 -10 178 -98q29 -44 36 -98h-114 q-14 71 -78 90q-11 4 -22 5v-200zM368 303l-16 4v-219q70 2 103 53q15 25 15 54q-2 85 -102 108zM185 516q0 -54 47 -77q21 -9 53 -17v191q-65 -4 -90 -54q-10 -20 -10 -43z" glyph-name="dollar" horiz-adv-x="641" unicode="$"/>
<glyph d="M273 0h-89l424 700h88zM206 714q103 0 145 -91q19 -43 19 -98q0 -114 -72 -163q-39 -26 -92 -26q-105 0 -145 93q-18 43 -18 96q0 113 71 163q39 26 92 26zM206 409q65 0 80 77q3 19 3 39q0 92 -56 112q-13 4 -27 4q-63 0 -78 -74q-4 -20 -4 -42q0 -93 57 -112 q12 -4 25 -4zM673 365q103 0 145 -91q19 -43 19 -98q0 -114 -72 -163q-39 -26 -92 -26q-104 0 -145 92q-19 43 -19 97q0 112 71 162q39 27 93 27zM673 60q62 0 79 73q4 20 4 43q0 88 -53 110q-14 6 -30 6q-64 0 -79 -74q-4 -20 -4 -42q0 -95 59 -113q12 -3 24 -3z" glyph-name="percent" horiz-adv-x="880" unicode="%"/>
<glyph d="M538 342h109q-16 -112 -75 -197l142 -145h-139l-62 63h-20q-89 -76 -201 -76q-142 0 -203 87q-34 49 -34 117q1 114 125 195v20q-53 64 -64 105q-5 21 -5 42q0 90 73 134q45 27 105 27q105 0 157 -65q32 -41 32 -94q0 -68 -67 -128q-24 -20 -66 -50l152 -157 q31 52 41 122zM296 84q82 1 137 60l-173 179l-29 -19q-63 -44 -64 -110q0 -76 71 -101q27 -9 58 -9zM285 441l33 24q52 48 56 87q0 47 -47 65q-17 6 -35 6q-59 0 -73 -47q-4 -12 -4 -25q1 -44 51 -92z" glyph-name="ampersand" horiz-adv-x="743" unicode="&amp;"/>
<glyph d="M75 443v271h104v-271h-104z" glyph-name="quotesingle" horiz-adv-x="254" unicode="'"/>
<glyph d="M148 312q0 -238 156 -449q2 -2 3 -4h-104q-158 191 -158 453q1 258 153 447h104q-152 -216 -154 -447z" glyph-name="parenleft" horiz-adv-x="310" unicode="("/>
<glyph d="M162 312q-1 235 -154 447h104q153 -190 153 -447q-1 -263 -158 -453h-104q154 207 159 438v15z" glyph-name="parenright" horiz-adv-x="310" unicode=")"/>
<glyph d="M202 714h82l-6 -164l155 57l26 -79l-158 -46l101 -129l-67 -50l-93 136l-91 -136l-67 50l100 129l-157 46l26 79l154 -57z" glyph-name="asterisk" horiz-adv-x="486" unicode="*"/>
<glyph d="M290 335v207h97v-207h208v-96h-208v-207h-97v207h-207v96h207z" glyph-name="plus" horiz-adv-x="678" unicode="+"/>
<glyph d="M132 0h-58v134h131v-151l-66 -112h-73l66 112v17z" glyph-name="comma" horiz-adv-x="279" unicode=","/>
<glyph d="M336 230h-288v99h288v-99z" glyph-name="hyphen" horiz-adv-x="384" unicode="-"/>
<glyph d="M204 0h-131v134h131v-134z" glyph-name="period" horiz-adv-x="277" unicode="."/>
<glyph d="M97 -141h-99l302 900h96z" glyph-name="slash" horiz-adv-x="423" unicode="/"/>
<glyph d="M318 714q150 0 219 -132q47 -91 47 -232q0 -245 -135 -328q-57 -35 -131 -35q-152 0 -221 135q-45 90 -45 228q0 250 138 331q56 33 128 33zM318 91q124 0 145 185q4 35 4 74q0 222 -111 255q-18 5 -38 5q-126 0 -146 -190q-3 -33 -3 -70q0 -219 109 -253q19 -6 40 -6z " glyph-name="zero" horiz-adv-x="636" unicode="0"/>
<glyph d="M56 0v102h162v479h-20l-143 -94v117l144 96h135v-598h149v-102h-427z" glyph-name="one" horiz-adv-x="518" unicode="1"/>
<glyph d="M49 498q8 142 124 193q53 23 120 23q135 0 198 -87q38 -55 38 -132q-1 -128 -141 -241l-162 -132v-20h325v-102h-499v121l250 199q109 87 110 174q0 86 -75 109q-22 7 -47 7q-98 0 -120 -86q-4 -13 -5 -26h-116z" glyph-name="two" horiz-adv-x="595" unicode="2"/>
<glyph d="M76 700h430v-119l-152 -131v-21q107 -6 157 -88q30 -50 30 -119q0 -129 -99 -193q-66 -42 -158 -42q-133 0 -205 86q-47 57 -51 132h117q7 -75 77 -103q29 -11 62 -11q93 0 127 67q14 29 14 64q0 90 -74 120q-30 12 -66 12q-37 0 -63 -6v102l151 131v20h-297v99z" glyph-name="three" horiz-adv-x="587" unicode="3"/>
<glyph d="M490 259h91v-102h-91v-157h-113v157h-340v127l307 416h146v-441zM152 259h228v309h-20l-208 -289v-20z" glyph-name="four" horiz-adv-x="623" unicode="4"/>
<glyph d="M333 474q115 0 180 -85q47 -63 47 -150q0 -131 -91 -202q-67 -50 -159 -50q-151 0 -218 102q-33 51 -37 116h116q11 -94 100 -111q17 -3 35 -3q86 0 121 70q16 33 16 75q0 91 -67 128q-30 16 -68 16q-83 -1 -125 -59h-112l31 379h417v-99h-325l-13 -173h20q56 46 132 46z " glyph-name="five" horiz-adv-x="610" unicode="5"/>
<glyph d="M341 461q109 0 174 -78q53 -64 53 -152q0 -116 -80 -186q-68 -58 -168 -58q-204 0 -253 206q-15 62 -15 141q0 225 110 322q67 58 165 58q117 0 181 -81q33 -42 41 -95h-115q-24 76 -109 77q-102 0 -142 -109q-16 -47 -19 -108h20q57 61 157 63zM318 87q85 0 118 68 q15 31 15 72q0 95 -74 126q-28 11 -60 11q-84 0 -118 -64q-16 -32 -16 -72q0 -90 69 -126q30 -15 66 -15z" glyph-name="six" horiz-adv-x="608" unicode="6"/>
<glyph d="M510 580l-289 -580h-124l292 579v20h-341v101h462v-120z" glyph-name="seven" horiz-adv-x="561" unicode="7"/>
<glyph d="M464 360q56 -21 87 -79q21 -40 21 -87q0 -100 -84 -158q-71 -49 -177 -49q-147 0 -219 87q-43 52 -43 120q0 93 71 146q19 13 37 20v20q-49 23 -73 78q-13 32 -13 68q0 97 86 150q64 38 154 38q134 0 200 -78q39 -48 39 -110q0 -82 -63 -131q-12 -9 -23 -15v-20zM311 620 q-78 0 -112 -51q-15 -24 -15 -52q0 -64 63 -91q29 -13 64 -13q79 0 112 52q14 24 14 52q0 63 -61 90q-30 13 -65 13zM311 87q100 0 134 65q12 25 12 53q0 74 -69 104q-34 14 -77 14q-102 0 -134 -66q-12 -24 -12 -52q0 -75 70 -104q33 -14 76 -14z" glyph-name="eight" horiz-adv-x="622" unicode="8"/>
<glyph d="M267 240q-109 0 -174 78q-53 64 -53 152q0 116 80 186q68 58 168 58q204 0 253 -206q15 -62 15 -141q0 -225 -110 -322q-67 -58 -165 -58q-117 0 -181 81q-33 42 -41 95h115q24 -76 109 -77q102 0 142 109q16 47 19 108h-20q-57 -61 -157 -63zM290 614q-85 0 -118 -68 q-15 -31 -15 -72q0 -95 74 -126q28 -11 60 -11q84 0 118 64q16 32 16 72q0 90 -69 126q-30 15 -66 15z" glyph-name="nine" horiz-adv-x="608" unicode="9"/>
<glyph d="M203 0h-131v134h131v-134zM203 375h-131v134h131v-134z" glyph-name="colon" horiz-adv-x="276" unicode=":"/>
<glyph d="M130 0h-58v134h131v-151l-66 -112h-73l66 112v17zM203 375h-131v134h131v-134z" glyph-name="semicolon" horiz-adv-x="276" unicode=";"/>
<glyph d="M587 121v-100l-504 226v79l504 226v-100l-351 -156v-20z" glyph-name="less" horiz-adv-x="670" unicode="&lt;"/>
<glyph d="M593 233v-97h-510v97h510zM593 437v-97h-510v97h510z" glyph-name="equal" horiz-adv-x="676" unicode="="/>
<glyph d="M83 21v100l350 155v20l-350 156v100l504 -226v-79z" glyph-name="greater" horiz-adv-x="670" unicode="&gt;"/>
<glyph d="M274 727q140 0 199 -90q31 -48 31 -109q0 -82 -60 -138q-18 -17 -62 -50q-45 -33 -55 -54q-9 -20 -9 -50v-34h-115v34q0 72 40 117q21 23 65 58q51 39 63 58q17 25 17 59q0 56 -48 83q-28 16 -64 16q-115 0 -120 -116v-2h-115q3 125 95 183q58 35 138 35zM325 0h-131v134 h131v-134z" glyph-name="question" horiz-adv-x="563" unicode="?"/>
<glyph d="M673 -61l27 -53q-119 -76 -266 -76q-194 0 -299 126q-84 103 -84 257q0 205 125 344q124 139 319 155q24 2 48 2q166 0 274 -97q109 -98 109 -253q0 -148 -77 -236q-65 -73 -160 -73q-82 1 -108 59h-18q-52 -58 -129 -59q-110 0 -147 91q-14 37 -14 84q0 113 68 188 q61 66 147 67q64 0 97 -37q5 -6 8 -11h18l8 34h92l-44 -254q-5 -33 -5 -49q9 -47 48 -51q58 0 102 62q48 69 48 177q0 162 -117 242q-84 56 -211 56q-163 0 -279 -107q-124 -113 -135 -290q-1 -16 -1 -32q0 -187 116 -274q81 -61 208 -61q126 1 232 69zM458 113q66 0 101 69 q22 44 22 100q-1 104 -85 105q-65 0 -100 -72q-21 -44 -21 -96q0 -95 68 -105q8 -1 15 -1z" glyph-name="at" horiz-adv-x="976" unicode="@"/>
<glyph d="M562 0l-66 205h-291l-65 -205h-122l237 714h194l238 -714h-125zM329 597l-90 -285h222l-91 285h-41z" glyph-name="A" horiz-adv-x="705" unicode="A"/>
<glyph d="M565 364q59 -26 85 -93q13 -33 13 -67q0 -118 -96 -171q-60 -33 -148 -33h-332v714h323q145 0 204 -89q28 -43 28 -96q0 -86 -56 -132q-11 -8 -21 -13v-20zM399 421q119 1 120 95q0 84 -95 93q-12 1 -25 1h-192v-189h192zM403 104q136 1 137 108q0 98 -114 106 q-12 1 -23 1h-196v-215h196z" glyph-name="B" horiz-adv-x="713" unicode="B"/>
<glyph d="M553 216h126q-25 -132 -134 -192q-69 -37 -157 -37q-179 0 -269 131q-67 97 -67 239q0 186 109 288q90 82 228 82q150 0 230 -99q39 -49 52 -112h-126q-35 101 -156 102q-132 0 -186 -117q-29 -62 -29 -144q0 -147 83 -217q53 -44 131 -44q111 0 152 84q8 18 13 36z" glyph-name="C" horiz-adv-x="728" unicode="C"/>
<glyph d="M370 714q204 0 285 -153q45 -85 45 -204q0 -209 -129 -300q-81 -57 -201 -57h-283v714h283zM360 109q161 0 204 145q14 46 14 103q0 174 -114 227q-45 21 -104 21h-153v-496h153z" glyph-name="D" horiz-adv-x="752" unicode="D"/>
<glyph d="M207 109h406v-109h-526v714h513v-109h-393v-184h311v-107h-311v-205z" glyph-name="E" horiz-adv-x="659" unicode="E"/>
<glyph d="M600 605h-393v-196h314v-107h-314v-302h-120v714h513v-109z" glyph-name="F" horiz-adv-x="642" unicode="F"/>
<glyph d="M381 388h316v-78q0 -162 -96 -250q-80 -73 -211 -73q-183 0 -274 135q-64 96 -64 235q0 186 109 287q90 83 230 83q163 0 241 -108q32 -44 44 -100h-125q-32 98 -160 99q-136 0 -190 -120q-27 -61 -27 -141q0 -151 86 -220q54 -42 131 -42q140 0 175 120q9 32 10 71h-195 v102z" glyph-name="G" horiz-adv-x="753" unicode="G"/>
<glyph d="M564 714h120v-714h-120v312h-357v-312h-120v714h120v-290h357v290z" glyph-name="H" horiz-adv-x="770" unicode="H"/>
<glyph d="M92 714h120v-714h-120v714z" glyph-name="I" horiz-adv-x="304" unicode="I"/>
<glyph d="M274 -13q-137 0 -201 98q-36 57 -40 136h120q17 -120 122 -125q89 0 108 91q5 22 5 47v480h120v-480q0 -154 -105 -215q-55 -32 -129 -32z" glyph-name="J" horiz-adv-x="593" unicode="J"/>
<glyph d="M87 0v714h120v-324l327 324h145l-217 -225l246 -489h-129l-199 385h-20l-153 -150v-235h-120z" glyph-name="K" horiz-adv-x="736" unicode="K"/>
<glyph d="M207 113h389v-113h-509v714h120v-601z" glyph-name="L" horiz-adv-x="637" unicode="L"/>
<glyph d="M87 0v714h186l152 -318h20l150 318h187v-714h-114v578h-20l-155 -320h-118l-154 320h-20v-578h-114z" glyph-name="M" horiz-adv-x="868" unicode="M"/>
<glyph d="M574 714h114v-714h-167l-300 542h-20v-542h-114v714h167l300 -542h20v542z" glyph-name="N" horiz-adv-x="774" unicode="N"/>
<glyph d="M393 727q180 0 272 -132q68 -97 68 -238q0 -179 -105 -282q-91 -88 -235 -88q-181 0 -274 133q-67 97 -67 237q0 179 105 282q91 88 236 88zM393 96q136 0 191 120q27 61 27 141q0 147 -84 216q-54 45 -134 45q-138 0 -192 -121q-27 -61 -27 -140q0 -148 85 -217 q54 -44 134 -44z" glyph-name="O" unicode="O"/>
<glyph d="M401 714q163 0 223 -106q27 -49 27 -114q0 -140 -112 -195q-58 -28 -138 -28h-194v-271h-120v714h314zM383 377q142 7 146 116q0 98 -102 112q-21 3 -44 3h-176v-231h176z" glyph-name="P" horiz-adv-x="701" unicode="P"/>
<glyph d="M393 727q180 0 272 -132q68 -97 68 -238q-1 -172 -97 -274l94 -155h-117l-57 96q-72 -37 -163 -37q-181 0 -274 133q-67 97 -67 237q0 179 105 282q91 88 236 88zM393 96q60 0 105 25l-120 202h112l81 -132q40 65 40 166q0 147 -84 216q-54 45 -134 45q-138 0 -192 -121 q-27 -61 -27 -140q0 -148 85 -217q54 -44 134 -44z" glyph-name="Q" unicode="Q"/>
<glyph d="M413 714q158 0 216 -103q27 -48 27 -112q-1 -134 -107 -187l110 -312h-122l-101 286q-22 -2 -63 -2h-166v-284h-120v714h326zM207 608v-220h189q137 1 138 110q0 94 -98 108q-19 2 -40 2h-189z" glyph-name="R" horiz-adv-x="718" unicode="R"/>
<glyph d="M605 526h-122q-27 94 -150 96q-94 0 -126 -53q-11 -20 -11 -44q0 -60 78 -82q12 -3 26 -6l60 -12q60 -11 74 -14q186 -43 187 -205q0 -106 -86 -167q-75 -52 -193 -52q-165 0 -245 98q-44 53 -51 124h122q21 -116 179 -117q103 0 139 59q14 22 14 50q0 71 -75 97 q-15 5 -33 9q-17 4 -98 19q-33 6 -41 8q-158 30 -176 157q-2 16 -2 31q0 102 87 160q69 45 173 45q149 0 223 -91q38 -47 47 -110z" glyph-name="S" horiz-adv-x="677" unicode="S"/>
<glyph d="M594 714v-106h-228v-608h-120v608h-229v106h577z" glyph-name="T" horiz-adv-x="611" unicode="T"/>
<glyph d="M545 714h120v-455q0 -175 -133 -240q-66 -32 -157 -32q-191 0 -259 130q-31 60 -31 142v455h120v-452q0 -109 83 -148q38 -18 87 -18q118 0 156 90q14 34 14 76v452z" glyph-name="U" horiz-adv-x="750" unicode="U"/>
<glyph d="M238 0l-220 714h127l177 -596h44l177 596h126l-220 -714h-211z" glyph-name="V" horiz-adv-x="687" unicode="V"/>
<glyph d="M374 495h154l113 -355h20l71 574h115l-90 -714h-180l-116 381h-20l-117 -381h-180l-89 714h117l70 -574h20z" glyph-name="W" horiz-adv-x="902" unicode="W"/>
<glyph d="M515 0l-166 309h-28l-170 -309h-132l207 376l-178 338h128l146 -273h28l149 273h127l-181 -334l207 -380h-137z" glyph-name="X" horiz-adv-x="671" unicode="X"/>
<glyph d="M317 409h26l171 305h131l-255 -452v-262h-120v262l-255 452h131z" glyph-name="Y" horiz-adv-x="661" unicode="Y"/>
<glyph d="M594 714v-130l-397 -454v-21h412v-109h-563v130l398 454v21h-371v109h521z" glyph-name="Z" horiz-adv-x="656" unicode="Z"/>
<glyph d="M297 -141h-224v900h224v-86h-123v-728h123v-86z" glyph-name="bracketleft" horiz-adv-x="353" unicode="["/>
<glyph d="M425 -141h-99l-299 900h96z" glyph-name="backslash" horiz-adv-x="423" unicode="\"/>
<glyph d="M280 -141h-224v86h123v728h-123v86h224v-900z" glyph-name="bracketright" horiz-adv-x="353" unicode="]"/>
<glyph d="M145 283h-105l207 410h72l208 -410h-104l-132 259h-16z" glyph-name="asciicircum" horiz-adv-x="568" unicode="^"/>
<glyph d="M510 -144h-511v78h511v-78z" glyph-name="underscore" horiz-adv-x="509" unicode="_"/>
<glyph d="M152 582l-112 145h123l89 -145h-100z" glyph-name="grave" horiz-adv-x="292" unicode="`"/>
<glyph d="M395 0v49h-20q-50 -62 -151 -62q-107 0 -157 75q-27 42 -27 92q0 86 67 134q53 37 135 37h150v15q0 82 -85 92q-11 1 -22 1q-90 0 -101 -59q-1 -4 -1 -6h-112q5 91 94 132q51 22 116 22q163 0 206 -107q14 -35 14 -77v-338h-106zM257 79q72 0 112 54q23 32 23 70v38h-130 q-99 0 -107 -71q-1 -6 -1 -11q0 -64 70 -77q16 -3 33 -3z" glyph-name="a" horiz-adv-x="572" unicode="a"/>
<glyph d="M355 522q119 0 182 -99q44 -70 44 -168q0 -141 -83 -216q-59 -52 -143 -52q-97 1 -147 63h-20v-50h-110v727h113v-268h20q48 63 144 63zM329 83q94 0 126 91q13 36 13 81q0 114 -71 154q-30 17 -68 17q-95 0 -128 -91q-13 -37 -13 -80q0 -106 64 -150q33 -22 77 -22z" glyph-name="b" horiz-adv-x="629" unicode="b"/>
<glyph d="M412 163h112q-16 -103 -106 -149q-52 -27 -118 -27q-139 0 -207 104q-45 68 -45 164q0 143 93 216q65 51 159 51q127 0 187 -85q26 -37 33 -83h-112q-24 71 -107 72q-103 0 -131 -102q-9 -31 -9 -68q0 -118 73 -157q29 -16 67 -16q93 1 111 80z" glyph-name="c" horiz-adv-x="568" unicode="c"/>
<glyph d="M274 522q97 -1 144 -63h20v268h113v-727h-110v50h-20q-52 -63 -147 -63q-120 0 -183 100q-43 70 -43 168q0 140 83 214q59 53 143 53zM300 83q95 0 128 92q13 36 13 80q0 104 -63 148q-33 23 -78 23q-94 0 -126 -90q-13 -36 -13 -81q0 -115 71 -155q30 -17 68 -17z" glyph-name="d" horiz-adv-x="629" unicode="d"/>
<glyph d="M536 283v-38h-376q4 -148 122 -161q11 -1 21 -1q88 1 111 65h115q-21 -106 -123 -144q-47 -17 -104 -17q-142 0 -210 106q-44 69 -44 165q0 150 99 220q63 44 152 44q135 0 199 -101q37 -60 38 -138zM298 432q-100 0 -129 -88q-2 -8 -4 -15h255q-9 69 -69 94q-25 9 -53 9 z" glyph-name="e" horiz-adv-x="583" unicode="e"/>
<glyph d="M365 413h-136v-413h-113v413h-91v96h91v48q0 148 136 167q23 3 48 3h73v-96h-69q-74 -2 -75 -78v-44h136v-96z" glyph-name="f" horiz-adv-x="405" unicode="f"/>
<glyph d="M441 509h110v-484q0 -133 -98 -195q-62 -39 -148 -39q-152 0 -211 88q-22 34 -27 76h112q15 -70 124 -71q125 0 134 130q1 10 1 19v35h-20q-46 -62 -141 -63q-121 0 -184 95q-45 68 -45 163q0 136 85 208q60 51 144 51q99 -1 144 -63h20v50zM300 101q91 0 126 81 q16 37 16 81q0 97 -62 140q-34 23 -80 23q-88 0 -123 -79q-16 -37 -16 -84q0 -102 66 -143q32 -19 73 -19z" glyph-name="g" horiz-adv-x="629" unicode="g"/>
<glyph d="M549 0h-113v296q0 117 -100 124q-7 1 -14 1q-76 0 -112 -68q-19 -37 -19 -83v-270h-113v727h113v-268h20q48 62 141 63q128 0 175 -99q22 -47 22 -108v-315z" glyph-name="h" horiz-adv-x="620" unicode="h"/>
<glyph d="M196 614h-120v113h120v-113zM192 509v-509h-113v509h113z" glyph-name="i" horiz-adv-x="272" unicode="i"/>
<glyph d="M24 -200h-64v96h46q84 2 85 90v523h113v-530q0 -137 -113 -170q-31 -9 -67 -9zM207 614h-120v113h120v-113z" glyph-name="j" horiz-adv-x="283" unicode="j"/>
<glyph d="M564 0h-122l-131 256h-20l-100 -111v-145h-113v727h113v-443l212 225h132l-148 -161z" glyph-name="k" horiz-adv-x="576" unicode="k"/>
<glyph d="M78 727h113v-727h-113v727z" glyph-name="l" horiz-adv-x="269" unicode="l"/>
<glyph d="M629 522q147 0 174 -140q5 -29 5 -61v-321h-113v307q-2 113 -88 114q-73 0 -98 -70q-9 -26 -9 -58v-293h-113v306q-6 111 -88 115q-71 0 -97 -74q-11 -32 -11 -69v-278h-113v509h110v-48h20q40 60 130 61q91 -1 132 -64h20q48 64 139 64z" glyph-name="m" horiz-adv-x="879" unicode="m"/>
<glyph d="M549 0h-113v296q0 117 -100 124q-7 1 -14 1q-76 0 -112 -68q-19 -37 -19 -83v-270h-113v509h110v-50h20q48 62 144 63q128 0 175 -99q22 -47 22 -108v-315z" glyph-name="n" horiz-adv-x="620" unicode="n"/>
<glyph d="M305 522q139 0 209 -101q48 -69 48 -166q0 -140 -92 -214q-67 -54 -165 -54q-139 0 -209 102q-48 69 -48 166q0 139 91 213q68 54 166 54zM305 83q94 0 129 89q15 38 15 83q0 99 -60 145q-36 26 -84 26q-93 0 -129 -87q-15 -38 -15 -84q0 -103 63 -148q35 -24 81 -24z " glyph-name="o" horiz-adv-x="610" unicode="o"/>
<glyph d="M355 -13q-97 1 -144 63h-20v-250h-113v709h110v-50h20q52 63 147 63q120 0 183 -100q43 -70 43 -168q0 -140 -83 -214q-59 -53 -143 -53zM329 426q-95 0 -128 -92q-13 -36 -13 -80q0 -104 63 -148q33 -23 78 -23q94 0 126 90q13 36 13 81q0 115 -71 155q-30 17 -68 17z " glyph-name="p" horiz-adv-x="629" unicode="p"/>
<glyph d="M274 -13q-119 0 -182 99q-44 70 -44 168q0 141 83 216q59 52 143 52q97 -1 147 -63h20v50h110v-709h-113v250h-20q-48 -63 -144 -63zM300 426q-94 0 -126 -91q-13 -36 -13 -81q0 -114 71 -154q30 -17 68 -17q95 0 128 91q13 37 13 80q0 106 -64 150q-33 22 -77 22z" glyph-name="q" horiz-adv-x="629" unicode="q"/>
<glyph d="M391 509v-105h-43q-127 0 -152 -113q-5 -25 -5 -53v-238h-113v509h110v-60h20q46 59 141 60h42z" glyph-name="r" horiz-adv-x="419" unicode="r"/>
<glyph d="M244 323l85 -15q148 -26 160 -138q1 -11 1 -21q0 -78 -71 -124q-59 -38 -148 -38q-179 0 -223 121q-7 22 -10 46h113q14 -72 118 -73q92 0 106 51q2 7 2 15q0 39 -44 55q-17 6 -42 11q-4 1 -35 6q-54 10 -62 12q-135 32 -136 136q0 90 83 130q51 25 125 25q130 0 184 -80 q20 -31 25 -69h-113q-7 49 -86 54q-8 1 -15 1q-72 0 -87 -37q-3 -8 -3 -16q0 -34 45 -46q12 -3 28 -6z" glyph-name="s" horiz-adv-x="531" unicode="s"/>
<glyph d="M231 509h134v-96h-134v-251q0 -59 63 -64h13h58v-98h-62q-123 0 -161 54q-24 34 -24 91v268h-93v96h93v148h113v-148z" glyph-name="t" horiz-adv-x="421" unicode="t"/>
<glyph d="M71 509h113v-296q2 -124 112 -125q77 0 112 70q18 36 18 81v270h113v-509h-110v50h-20q-48 -62 -143 -63q-130 0 -175 103q-20 45 -20 104v315z" glyph-name="u" horiz-adv-x="617" unicode="u"/>
<glyph d="M179 0l-158 509h117l122 -402h42l118 402h117l-159 -509h-199z" glyph-name="v" horiz-adv-x="559" unicode="v"/>
<glyph d="M300 366h126l75 -233h20l53 376h108l-74 -509h-152l-84 256h-20l-85 -256h-153l-73 509h109l54 -376h20z" glyph-name="w" horiz-adv-x="723" unicode="w"/>
<glyph d="M418 0l-115 200h-28l-117 -200h-124l154 261l-139 248h121l106 -188h28l108 188h119l-140 -245l152 -264h-125z" glyph-name="x" horiz-adv-x="577" unicode="x"/>
<glyph d="M245 -200h-117l105 250l-216 459h120l142 -307h26l129 307h119z" glyph-name="y" horiz-adv-x="566" unicode="y"/>
<glyph d="M486 0h-437v116l283 277v20h-266v96h414v-115l-282 -278v-20h288v-96z" glyph-name="z" horiz-adv-x="535" unicode="z"/>
<glyph d="M188 319v-20q58 -27 61 -109v-143q2 -101 89 -102h34v-86h-48q-109 0 -154 79q-22 40 -22 92v139q0 79 -43 92q-11 3 -24 3h-19v90h19q55 0 64 57q3 17 3 38v139q0 107 83 150q41 21 93 21h48v-86h-34q-87 -4 -89 -102v-143q0 -87 -58 -108q-2 -1 -3 -1z" glyph-name="braceleft" horiz-adv-x="409" unicode="{"/>
<glyph d="M83 -141v900h95v-900h-95z" glyph-name="bar" horiz-adv-x="261" unicode="|"/>
<glyph d="M221 299v20q-58 27 -61 109v143q-2 101 -89 102h-34v86h48q109 0 154 -79q22 -40 22 -92v-139q0 -79 43 -92q11 -3 24 -3h19v-90h-19q-55 0 -64 -57q-3 -17 -3 -38v-139q0 -107 -83 -150q-41 -21 -93 -21h-48v86h34q87 4 89 102v143q0 87 58 108q2 1 3 1z" glyph-name="braceright" horiz-adv-x="409" unicode="}"/>
<glyph d="M503 377h85q0 -117 -71 -161q-31 -19 -68 -19q-49 0 -125 47q-2 1 -3 2q-61 36 -90 38q-59 0 -64 -76v-11h-84q0 119 72 162q30 18 66 18q52 0 133 -52q56 -35 85 -35q59 0 64 76v11z" glyph-name="asciitilde" horiz-adv-x="671" unicode="~"/>
<glyph glyph-name="uni00A0" horiz-adv-x="278" unicode=" "/>
<glyph d="M226 -200h-120v287l21 220h78l21 -220v-287zM100 509h131v-134h-131v134z" glyph-name="exclamdown" horiz-adv-x="331" unicode="¡"/>
<glyph d="M262 -80v70q-127 15 -183 124q-31 62 -31 141q0 143 92 215q52 40 122 49v70h68v-69q116 -11 166 -98q18 -32 24 -68h-112q-20 57 -78 69v-338q67 13 82 78h112q-16 -102 -105 -148q-40 -21 -89 -26v-69h-68zM161 256q0 -121 76 -160q12 -6 25 -9v334q-85 -21 -99 -129 q-2 -18 -2 -36z" glyph-name="cent" horiz-adv-x="568" unicode="¢"/>
<glyph d="M231 102h375v-102h-553v102h18q69 2 70 89v88h-88v93h88v119q0 136 95 192q52 31 124 31q137 0 191 -102q24 -46 26 -107h-116q-5 104 -99 105q-95 0 -104 -100q-1 -10 -1 -19v-119h215v-93h-215v-80q0 -51 -23 -74l-3 -3v-20z" glyph-name="sterling" horiz-adv-x="641" unicode="£"/>
<glyph d="M585 4l-68 67q-68 -52 -155 -52q-87 1 -156 52l-68 -67l-55 54l67 68q-52 72 -52 157q1 86 52 155l-67 68l55 55l68 -67q71 51 156 51q87 -1 155 -51l68 67l55 -55l-67 -69q51 -69 51 -154q-1 -86 -51 -156l67 -69zM362 94q88 0 141 69q39 52 39 120q0 93 -68 148 q-49 39 -112 39q-87 0 -141 -68q-41 -52 -41 -119q0 -94 69 -150q50 -39 113 -39z" glyph-name="currency" horiz-adv-x="723" unicode="¤"/>
<glyph d="M93 310v63h94l-163 327h118l161 -327h28l161 327h119l-163 -327h93v-63h-124l-34 -67h158v-63h-166v-180h-116v180h-166v63h159l-34 67h-125z" glyph-name="yen" horiz-adv-x="634" unicode="¥"/>
<glyph d="M83 411v348h95v-348h-95zM83 -141v348h95v-348h-95z" glyph-name="brokenbar" horiz-adv-x="261" unicode="¦"/>
<glyph d="M226 379q-44 -16 -60 -57q-5 -15 -5 -30q0 -58 65 -82q7 -3 14 -5l147 -43q52 24 62 69q2 9 2 17q0 56 -58 80q-9 4 -20 7zM556 265q0 -74 -58 -120q-15 -11 -29 -17v-20q46 -40 46 -110q0 -86 -77 -135q-58 -37 -139 -37q-130 0 -188 89q-30 48 -33 113h105 q4 -88 83 -106q18 -4 37 -4q80 0 101 54q5 14 5 28q-2 58 -70 79l-133 38q-119 35 -143 109q-7 23 -7 50q0 72 56 116q17 13 33 19v20q-47 38 -47 112q0 90 80 138q56 33 134 33q133 0 189 -92q28 -46 31 -108h-105q-4 91 -89 106q-15 2 -31 2q-78 0 -99 -53q-5 -14 -5 -28 q2 -58 70 -79l133 -39q118 -34 142 -106q8 -24 8 -52z" glyph-name="section" horiz-adv-x="612" unicode="§"/>
<glyph d="M332 614h-104v113h104v-113zM143 614h-105v113h105v-113z" glyph-name="dieresis" horiz-adv-x="370" unicode="¨"/>
<glyph d="M525 297h75q-13 -86 -85 -121q-36 -17 -79 -17q-110 0 -158 88q-25 48 -25 109q0 114 76 167q45 31 107 31q96 0 140 -71q16 -27 21 -58h-76q-16 61 -85 62q-84 0 -103 -86q-4 -21 -4 -45q0 -99 68 -123q18 -6 39 -6q73 0 88 66q1 2 1 4zM427 727q153 0 259 -103 q106 -104 110 -256v-11q0 -154 -103 -260t-255 -110h-11q-153 0 -259 103q-106 104 -110 256v11q0 154 104 260q102 105 253 110h12zM427 46q137 0 225 95q82 89 82 216q0 139 -94 229q-88 82 -213 82q-138 0 -226 -96q-80 -89 -80 -215q0 -139 94 -229q87 -82 212 -82z" glyph-name="copyright" horiz-adv-x="854" unicode="©"/>
<glyph d="M297 335v35h-13q-42 -44 -112 -44q-86 0 -120 65q-15 28 -15 60q0 72 60 105q36 19 87 19h110v14q-10 60 -78 64q-68 -1 -75 -49h-81q4 73 76 103q34 14 77 14q124 0 153 -85q8 -23 8 -50v-251h-77zM193 394q60 0 88 45q13 21 13 46v31h-93q-64 0 -80 -40q-4 -10 -4 -20 q0 -47 50 -59q13 -3 26 -3z" glyph-name="ordfeminine" horiz-adv-x="434" unicode="ª"/>
<glyph d="M158 296v-19l167 -180h-123l-147 154v70l147 155h123zM389 296v-19l167 -180h-123l-147 154v70l147 155h123z" glyph-name="guillemotleft" horiz-adv-x="611" unicode="«"/>
<glyph d="M504 104v199h-421v96h516v-295h-95z" glyph-name="logicalnot" horiz-adv-x="682" unicode="¬"/>
<glyph d="M335 230h-288v99h288v-99z" glyph-name="uni00AD" horiz-adv-x="383" unicode="­"/>
<glyph d="M462 547q103 0 126 -76q5 -19 5 -40q-1 -70 -56 -100l59 -165h-76l-53 149h-108v-149h-74v381h177zM451 379q66 1 67 51q-2 50 -67 51h-92v-102h92zM427 727q153 0 259 -103q106 -104 110 -256v-11q0 -154 -103 -260t-255 -110h-11q-153 0 -259 103q-106 104 -110 256v11 q0 154 104 260q102 105 253 110h12zM427 46q137 0 225 95q82 89 82 216q0 139 -94 229q-88 82 -213 82q-138 0 -226 -96q-80 -89 -80 -215q0 -139 94 -229q87 -82 212 -82z" glyph-name="registered" horiz-adv-x="854" unicode="®"/>
<glyph d="M332 628h-292v77h292v-77z" glyph-name="macron" horiz-adv-x="372" unicode="¯"/>
<glyph d="M430 523q0 -98 -72 -156q-54 -42 -125 -42q-98 0 -155 74q-41 53 -41 124q0 99 73 156q53 42 123 42q97 0 155 -72q42 -55 42 -126zM233 399q67 0 100 56q18 31 18 68q0 70 -53 105q-29 20 -65 20q-67 0 -100 -57q-18 -31 -18 -68q0 -70 53 -105q30 -19 65 -19z" glyph-name="degree" horiz-adv-x="468" unicode="°"/>
<glyph d="M83 0v96h512v-96h-512zM290 400v157h97v-157h208v-96h-208v-157h-97v157h-206v96h206z" glyph-name="plusminus" horiz-adv-x="678" unicode="±"/>
<glyph d="M159 401h170v-68h-292v81l114 78q75 51 84 91q1 7 1 13q0 49 -49 54q-5 1 -10 1q-61 -2 -64 -60h-78q2 96 87 122q26 8 57 8q90 0 123 -63q13 -26 13 -59q-1 -74 -75 -126l-81 -58v-14z" glyph-name="twosuperior" horiz-adv-x="366" unicode="²"/>
<glyph d="M237 568q58 -8 83 -59q11 -25 11 -53q0 -79 -69 -113q-35 -17 -79 -17q-88 0 -129 61q-20 31 -21 68h77q5 -48 55 -57q9 -2 18 -2q54 0 67 41q3 10 3 20q0 48 -45 60q-12 3 -24 3q-20 0 -37 -4v63l68 53v14h-155v68h254v-77l-77 -56v-13z" glyph-name="threesuperior" horiz-adv-x="369" unicode="³"/>
<glyph d="M253 727l-113 -145h-102l89 145h126z" glyph-name="acute" horiz-adv-x="292" unicode="´"/>
<glyph d="M78 509h113v-296q2 -124 112 -125q77 0 112 70q18 36 18 81v270h113v-509h-110v50h-20q-48 -62 -143 -63q-45 0 -82 14v-201h-113v709z" glyph-name="mu" horiz-adv-x="624" unicode="µ"/>
<glyph d="M354 -177h-98v491q-133 0 -189 85q-31 48 -31 115q0 156 140 191q36 9 80 9h382v-82h-80v-809h-98v809h-106v-809z" glyph-name="paragraph" horiz-adv-x="684" unicode="¶"/>
<glyph d="M203 264h-131v134h131v-134z" glyph-name="periodcentered" horiz-adv-x="276" unicode="·"/>
<glyph d="M101 24h53l-31 -82h13q12 9 36 9q41 0 60 -40q9 -20 9 -42q0 -56 -49 -79q-24 -11 -55 -11q-67 0 -90 48q-6 13 -7 27h63q9 -23 36 -24q30 0 35 27q1 5 1 9q0 30 -28 35q-4 1 -8 1q-19 -1 -31 -12h-58z" glyph-name="cedilla" horiz-adv-x="280" unicode="¸"/>
<glyph d="M208 401h88v-68h-259v68h92v228h-14l-78 -45v75l95 55h76v-313z" glyph-name="onesuperior" horiz-adv-x="333" unicode="¹"/>
<glyph d="M225 721q107 0 158 -83q30 -50 30 -114q0 -108 -73 -163q-49 -35 -115 -35q-106 0 -157 83q-31 50 -31 115q0 105 72 160q49 37 116 37zM225 398q72 0 98 68q10 27 10 58q0 76 -51 109q-25 16 -57 16q-72 0 -98 -69q-10 -26 -10 -56q0 -76 50 -109q25 -17 58 -17z" glyph-name="ordmasculine" horiz-adv-x="450" unicode="º"/>
<glyph d="M453 277v19l-167 180h123l147 -155v-70l-147 -154h-123zM222 277v19l-167 180h123l147 -155v-70l-147 -154h-123z" glyph-name="guillemotright" horiz-adv-x="611" unicode="»"/>
<glyph d="M275 0h-89l424 700h88zM208 401h88v-68h-259v68h92v228h-14l-78 -45v75l95 55h76v-313zM784 149h49v-68h-49v-81h-77v81h-186v76l169 224h94v-232zM600 149h109v142h-14l-95 -128v-14z" glyph-name="onequarter" horiz-adv-x="870" unicode="¼"/>
<glyph d="M275 0h-89l424 700h88zM208 401h88v-68h-259v68h92v228h-14l-78 -45v75l95 55h76v-313zM679 68h170v-68h-292v81l114 78q75 51 84 91q1 7 1 13q0 49 -49 54q-5 1 -10 1q-61 -2 -64 -60h-78q2 96 87 122q26 8 57 8q90 0 123 -63q13 -26 13 -59q-1 -74 -75 -126l-81 -58 v-14z" glyph-name="onehalf" horiz-adv-x="886" unicode="½"/>
<glyph d="M279 0h-89l424 700h88zM789 149h49v-68h-49v-81h-77v81h-186v76l169 224h94v-232zM605 149h109v142h-14l-95 -128v-14zM236 568q58 -8 83 -59q11 -25 11 -53q0 -79 -69 -113q-35 -17 -79 -17q-88 0 -129 61q-20 31 -21 68h77q5 -48 55 -57q9 -2 18 -2q54 0 67 41 q3 10 3 20q0 48 -45 60q-12 3 -24 3q-20 0 -37 -4v63l68 53v14h-155v68h254v-77l-77 -56v-13z" glyph-name="threequarters" horiz-adv-x="875" unicode="¾"/>
<glyph d="M360 375h-131v134h131v-134zM281 -209q-140 0 -199 90q-31 48 -31 109q0 82 60 138q18 17 62 50q45 33 55 54q9 20 9 50v25h115v-25q0 -72 -40 -117q-21 -23 -65 -58q-51 -39 -63 -58q-17 -25 -17 -59q0 -56 48 -83q28 -16 64 -16q115 0 120 116v2h115q-3 -125 -95 -183 q-58 -35 -138 -35z" glyph-name="questiondown" horiz-adv-x="559" unicode="¿"/>
<glyph d="M562 0l-66 205h-291l-65 -205h-122l237 714h194l238 -714h-125zM329 597l-90 -285h222l-91 285h-41zM299 767l-112 129h129l89 -129h-106z" glyph-name="Agrave" horiz-adv-x="705" unicode="À"/>
<glyph d="M562 0l-66 205h-291l-65 -205h-122l237 714h194l238 -714h-125zM329 597l-90 -285h222l-91 285h-41zM514 896l-113 -129h-105l88 129h130z" glyph-name="Aacute" horiz-adv-x="705" unicode="Á"/>
<glyph d="M562 0l-66 205h-291l-65 -205h-122l237 714h194l238 -714h-125zM329 597l-90 -285h222l-91 285h-41zM405 896l111 -129h-100l-55 60h-20l-54 -60h-98l111 129h105z" glyph-name="Acircumflex" horiz-adv-x="705" unicode="Â"/>
<glyph d="M562 0l-66 205h-291l-65 -205h-122l237 714h194l238 -714h-125zM329 597l-90 -285h222l-91 285h-41zM422 838q36 2 36 62h61q0 -122 -79 -135q-10 -2 -19 -2q-10 0 -19 1.5t-20 7t-14.5 7t-17.5 10.5l-13 9q-35 23 -45 25q-7 2 -13 2q-36 -2 -36 -62h-61q0 122 79 135 q10 2 19 2q37 0 89 -37q38 -24 53 -25z" glyph-name="Atilde" horiz-adv-x="705" unicode="Ã"/>
<glyph d="M562 0l-66 205h-291l-65 -205h-122l237 714h194l238 -714h-125zM329 597l-90 -285h222l-91 285h-41zM501 790h-104v106h104v-106zM312 790h-105v106h105v-106z" glyph-name="Adieresis" horiz-adv-x="705" unicode="Ä"/>
<glyph d="M353 878q62 0 95 -51q18 -28 18 -61q-1 -31 -16 -58l236 -708h-123l-66 205h-293l-65 -205h-120l236 710q-16 26 -16 56q0 60 50 93q30 19 64 19zM328 597l-90 -285h224l-91 285h-43zM353 714q34 0 48 31q5 10 5 21q0 34 -30 49q-12 5 -23 5q-33 0 -48 -31q-5 -11 -5 -23 q0 -34 31 -47q11 -5 22 -5z" glyph-name="Aring" horiz-adv-x="705" unicode="Å"/>
<glyph d="M507 0v206h-261l-107 -206h-132l380 714h582v-109h-342v-184h260v-107h-260v-205h355v-109h-475zM455 605l-153 -293h205v293h-52z" glyph-name="AE" horiz-adv-x="1028" unicode="Æ"/>
<glyph d="M553 216h126q-25 -137 -139 -195q-65 -33 -148 -34l-17 -45h13q12 9 36 9q43 0 61 -42q8 -18 8 -40q0 -56 -49 -79q-24 -11 -55 -11q-67 0 -90 48q-6 13 -7 27h63q9 -23 36 -24q30 0 35 27q1 5 1 9q0 30 -28 35q-4 1 -8 1q-19 -1 -31 -12h-58l37 100q-162 18 -238 155 q-49 90 -49 212q0 186 109 288q90 82 228 82q150 0 230 -99q39 -49 52 -112h-126q-35 101 -156 102q-132 0 -186 -117q-29 -62 -29 -144q0 -147 83 -217q53 -44 131 -44q111 0 152 84q8 18 13 36z" glyph-name="Ccedilla" horiz-adv-x="728" unicode="Ç"/>
<glyph d="M207 109h406v-109h-526v714h513v-109h-393v-184h311v-107h-311v-205zM313 767l-112 129h129l89 -129h-106z" glyph-name="Egrave" horiz-adv-x="659" unicode="È"/>
<glyph d="M207 109h406v-109h-526v714h513v-109h-393v-184h311v-107h-311v-205zM471 896l-113 -129h-105l88 129h130z" glyph-name="Eacute" horiz-adv-x="659" unicode="É"/>
<glyph d="M207 109h406v-109h-526v714h513v-109h-393v-184h311v-107h-311v-205zM397 896l111 -129h-100l-55 60h-20l-54 -60h-98l111 129h105z" glyph-name="Ecircumflex" horiz-adv-x="659" unicode="Ê"/>
<glyph d="M207 109h406v-109h-526v714h513v-109h-393v-184h311v-107h-311v-205zM488 790h-104v106h104v-106zM299 790h-105v106h105v-106z" glyph-name="Edieresis" horiz-adv-x="659" unicode="Ë"/>
<glyph d="M92 714h120v-714h-120v714zM101 767l-112 129h129l89 -129h-106z" glyph-name="Igrave" horiz-adv-x="305" unicode="Ì"/>
<glyph d="M92 714h120v-714h-120v714zM318 896l-113 -129h-105l88 129h130z" glyph-name="Iacute" horiz-adv-x="305" unicode="Í"/>
<glyph d="M92 714h120v-714h-120v714zM206 896l111 -129h-100l-55 60h-20l-54 -60h-98l111 129h105z" glyph-name="Icircumflex" horiz-adv-x="305" unicode="Î"/>
<glyph d="M92 714h120v-714h-120v714zM300 790h-104v106h104v-106zM111 790h-105v106h105v-106z" glyph-name="Idieresis" horiz-adv-x="305" unicode="Ï"/>
<glyph d="M20 318v94h80v302h283q204 0 285 -153q45 -85 45 -204q0 -209 -129 -300q-81 -57 -201 -57h-283v318h-80zM373 109q161 0 204 145q14 46 14 103q0 174 -114 227q-45 21 -104 21h-153v-193h205v-94h-205v-209h153z" glyph-name="Eth" horiz-adv-x="765" unicode="Ð"/>
<glyph d="M574 714h114v-714h-167l-300 542h-20v-542h-114v714h167l300 -542h20v542zM459 838q36 2 36 62h61q0 -122 -79 -135q-10 -2 -19 -2q-10 0 -19 1.5t-20 7t-14.5 7t-16.5 10.5l-14 9q-35 23 -45 25q-7 2 -13 2q-36 -2 -36 -62h-61q0 122 79 135q10 2 19 2q37 0 89 -37 q38 -24 53 -25z" glyph-name="Ntilde" horiz-adv-x="774" unicode="Ñ"/>
<glyph d="M393 727q180 0 272 -132q68 -97 68 -238q0 -179 -105 -282q-91 -88 -235 -88q-181 0 -274 133q-67 97 -67 237q0 179 105 282q91 88 236 88zM393 96q136 0 191 120q27 61 27 141q0 147 -84 216q-54 45 -134 45q-138 0 -192 -121q-27 -61 -27 -140q0 -148 85 -217 q54 -44 134 -44zM347 767l-112 129h129l89 -129h-106z" glyph-name="Ograve" unicode="Ò"/>
<glyph d="M393 727q180 0 272 -132q68 -97 68 -238q0 -179 -105 -282q-91 -88 -235 -88q-181 0 -274 133q-67 97 -67 237q0 179 105 282q91 88 236 88zM393 96q136 0 191 120q27 61 27 141q0 147 -84 216q-54 45 -134 45q-138 0 -192 -121q-27 -61 -27 -140q0 -148 85 -217 q54 -44 134 -44zM555 896l-113 -129h-105l88 129h130z" glyph-name="Oacute" unicode="Ó"/>
<glyph d="M393 727q180 0 272 -132q68 -97 68 -238q0 -179 -105 -282q-91 -88 -235 -88q-181 0 -274 133q-67 97 -67 237q0 179 105 282q91 88 236 88zM393 96q136 0 191 120q27 61 27 141q0 147 -84 216q-54 45 -134 45q-138 0 -192 -121q-27 -61 -27 -140q0 -148 85 -217 q54 -44 134 -44zM446 896l111 -129h-100l-55 60h-20l-54 -60h-98l111 129h105z" glyph-name="Ocircumflex" unicode="Ô"/>
<glyph d="M393 727q180 0 272 -132q68 -97 68 -238q0 -179 -105 -282q-91 -88 -235 -88q-181 0 -274 133q-67 97 -67 237q0 179 105 282q91 88 236 88zM393 96q136 0 191 120q27 61 27 141q0 147 -84 216q-54 45 -134 45q-138 0 -192 -121q-27 -61 -27 -140q0 -148 85 -217 q54 -44 134 -44zM465 838q36 2 36 62h61q0 -122 -79 -135q-10 -2 -19 -2q-10 0 -19 1.5t-20 7t-14.5 7t-16.5 10.5l-14 9q-35 23 -45 25q-7 2 -13 2q-36 -2 -36 -62h-61q0 122 79 135q10 2 19 2q37 0 89 -37q38 -24 53 -25z" glyph-name="Otilde" unicode="Õ"/>
<glyph d="M393 727q180 0 272 -132q68 -97 68 -238q0 -179 -105 -282q-91 -88 -235 -88q-181 0 -274 133q-67 97 -67 237q0 179 105 282q91 88 236 88zM393 96q136 0 191 120q27 61 27 141q0 147 -84 216q-54 45 -134 45q-138 0 -192 -121q-27 -61 -27 -140q0 -148 85 -217 q54 -44 134 -44zM540 790h-104v106h104v-106zM351 790h-105v106h105v-106z" glyph-name="Odieresis" unicode="Ö"/>
<glyph d="M257 287l-174 176l67 67l175 -175l175 174l67 -66l-174 -176l174 -176l-67 -67l-175 175l-174 -173l-67 66z" glyph-name="multiply" horiz-adv-x="650" unicode="×"/>
<glyph d="M393 727q119 -1 202 -61l39 48h101l-83 -102q81 -102 81 -255q0 -179 -105 -282q-91 -88 -235 -88q-120 1 -203 60l-39 -47h-101l83 101q-81 100 -81 256q0 179 105 282q91 88 236 88zM393 96q136 0 191 120q27 61 27 141q0 94 -37 160l-311 -380q53 -41 130 -41z M174 357q0 -95 37 -160l311 380q-53 41 -129 41q-138 0 -192 -121q-27 -61 -27 -140z" glyph-name="Oslash" unicode="Ø"/>
<glyph d="M545 714h120v-455q0 -175 -133 -240q-66 -32 -157 -32q-191 0 -259 130q-31 60 -31 142v455h120v-452q0 -109 83 -148q38 -18 87 -18q118 0 156 90q14 34 14 76v452zM337 767l-112 129h129l89 -129h-106z" glyph-name="Ugrave" horiz-adv-x="750" unicode="Ù"/>
<glyph d="M545 714h120v-455q0 -175 -133 -240q-66 -32 -157 -32q-191 0 -259 130q-31 60 -31 142v455h120v-452q0 -109 83 -148q38 -18 87 -18q118 0 156 90q14 34 14 76v452zM518 896l-113 -129h-105l88 129h130z" glyph-name="Uacute" horiz-adv-x="750" unicode="Ú"/>
<glyph d="M545 714h120v-455q0 -175 -133 -240q-66 -32 -157 -32q-191 0 -259 130q-31 60 -31 142v455h120v-452q0 -109 83 -148q38 -18 87 -18q118 0 156 90q14 34 14 76v452zM428 896l111 -129h-100l-55 60h-20l-54 -60h-98l111 129h105z" glyph-name="Ucircumflex" horiz-adv-x="750" unicode="Û"/>
<glyph d="M545 714h120v-455q0 -175 -133 -240q-66 -32 -157 -32q-191 0 -259 130q-31 60 -31 142v455h120v-452q0 -109 83 -148q38 -18 87 -18q118 0 156 90q14 34 14 76v452zM522 790h-104v106h104v-106zM333 790h-105v106h105v-106z" glyph-name="Udieresis" horiz-adv-x="750" unicode="Ü"/>
<glyph d="M317 409h26l171 305h131l-255 -452v-262h-120v262l-255 452h131zM480 896l-113 -129h-105l88 129h130z" glyph-name="Yacute" horiz-adv-x="661" unicode="Ý"/>
<glyph d="M375 570q160 0 216 -106q24 -46 24 -107q0 -134 -108 -186q-56 -27 -132 -27h-168v-144h-120v714h120v-144h168zM357 250q132 7 136 108q0 91 -98 104q-18 2 -38 2h-150v-214h150z" glyph-name="Thorn" horiz-adv-x="665" unicode="Þ"/>
<glyph d="M466 383q72 -17 105 -88q19 -40 19 -86q0 -131 -104 -183q-53 -26 -123 -26h-65v96h46q127 10 133 119q0 100 -101 120q-22 4 -47 4h-14v96h14q90 0 107 70q3 14 3 28q0 71 -61 93q-21 7 -45 7q-112 -2 -113 -135v-498h-113v413h-90v96h91q0 137 103 192q53 28 125 28 q119 0 178 -76q36 -48 36 -110q0 -82 -55 -124q-14 -10 -29 -16v-20z" glyph-name="germandbls" horiz-adv-x="631" unicode="ß"/>
<glyph d="M395 0v49h-20q-50 -62 -151 -62q-107 0 -157 75q-27 42 -27 92q0 86 67 134q53 37 135 37h150v15q0 82 -85 92q-11 1 -22 1q-90 0 -101 -59q-1 -4 -1 -6h-112q5 91 94 132q51 22 116 22q163 0 206 -107q14 -35 14 -77v-338h-106zM257 79q72 0 112 54q23 32 23 70v38h-130 q-99 0 -107 -71q-1 -6 -1 -11q0 -64 70 -77q16 -3 33 -3zM256 582l-112 145h123l89 -145h-100z" glyph-name="agrave" horiz-adv-x="572" unicode="à"/>
<glyph d="M395 0v49h-20q-50 -62 -151 -62q-107 0 -157 75q-27 42 -27 92q0 86 67 134q53 37 135 37h150v15q0 82 -85 92q-11 1 -22 1q-90 0 -101 -59q-1 -4 -1 -6h-112q5 91 94 132q51 22 116 22q163 0 206 -107q14 -35 14 -77v-338h-106zM257 79q72 0 112 54q23 32 23 70v38h-130 q-99 0 -107 -71q-1 -6 -1 -11q0 -64 70 -77q16 -3 33 -3zM431 727l-113 -145h-102l89 145h126z" glyph-name="aacute" horiz-adv-x="572" unicode="á"/>
<glyph d="M395 0v49h-20q-50 -62 -151 -62q-107 0 -157 75q-27 42 -27 92q0 86 67 134q53 37 135 37h150v15q0 82 -85 92q-11 1 -22 1q-90 0 -101 -59q-1 -4 -1 -6h-112q5 91 94 132q51 22 116 22q163 0 206 -107q14 -35 14 -77v-338h-106zM257 79q72 0 112 54q23 32 23 70v38h-130 q-99 0 -107 -71q-1 -6 -1 -11q0 -64 70 -77q16 -3 33 -3zM343 727l111 -145h-97l-59 73h-17l-58 -73h-96l112 145h104z" glyph-name="acircumflex" horiz-adv-x="572" unicode="â"/>
<glyph d="M395 0v49h-20q-50 -62 -151 -62q-107 0 -157 75q-27 42 -27 92q0 86 67 134q53 37 135 37h150v15q0 82 -85 92q-11 1 -22 1q-90 0 -101 -59q-1 -4 -1 -6h-112q5 91 94 132q51 22 116 22q163 0 206 -107q14 -35 14 -77v-338h-106zM257 79q72 0 112 54q23 32 23 70v38h-130 q-99 0 -107 -71q-1 -6 -1 -11q0 -64 70 -77q16 -3 33 -3zM360 661q36 2 36 62h61q0 -122 -79 -135q-10 -2 -19 -2q-10 0 -19 1.5t-20 7t-14.5 7t-17.5 10.5l-13 9q-35 23 -45 25q-7 2 -13 2q-36 -2 -36 -62h-61q0 122 79 135q10 2 19 2q37 0 89 -37q38 -24 53 -25z" glyph-name="atilde" horiz-adv-x="572" unicode="ã"/>
<glyph d="M395 0v49h-20q-50 -62 -151 -62q-107 0 -157 75q-27 42 -27 92q0 86 67 134q53 37 135 37h150v15q0 82 -85 92q-11 1 -22 1q-90 0 -101 -59q-1 -4 -1 -6h-112q5 91 94 132q51 22 116 22q163 0 206 -107q14 -35 14 -77v-338h-106zM257 79q72 0 112 54q23 32 23 70v38h-130 q-99 0 -107 -71q-1 -6 -1 -11q0 -64 70 -77q16 -3 33 -3zM445 614h-104v113h104v-113zM256 614h-105v113h105v-113z" glyph-name="adieresis" horiz-adv-x="572" unicode="ä"/>
<glyph d="M395 0v49h-20q-50 -62 -151 -62q-107 0 -157 75q-27 42 -27 92q0 86 67 134q53 37 135 37h150v15q0 82 -85 92q-11 1 -22 1q-90 0 -101 -59q-1 -4 -1 -6h-112q5 91 94 132q51 22 116 22q163 0 206 -107q14 -35 14 -77v-338h-106zM257 79q72 0 112 54q23 32 23 70v38h-130 q-99 0 -107 -71q-1 -6 -1 -11q0 -64 70 -77q16 -3 33 -3zM291 798q62 0 95 -51q18 -28 18 -61q0 -59 -50 -92q-29 -19 -63 -19q-60 0 -94 49q-20 29 -20 62q0 60 50 93q30 19 64 19zM291 634q34 0 48 31q5 10 5 21q0 34 -30 49q-12 5 -23 5q-33 0 -48 -31q-5 -11 -5 -23 q0 -34 31 -47q11 -5 22 -5z" glyph-name="aring" horiz-adv-x="572" unicode="å"/>
<glyph d="M861 241h-369q4 -116 83 -148q26 -10 56 -10q86 1 111 65h114q-24 -116 -137 -149q-40 -12 -88 -12q-121 1 -188 93h-20q-55 -76 -157 -90q-19 -3 -38 -3q-111 0 -162 75q-26 40 -26 87q0 118 105 159q44 17 102 17h137v15q0 82 -82 92q-10 1 -21 1q-86 0 -97 -60 q-1 -3 -1 -5h-112q4 87 88 129q51 25 118 25q112 -1 167 -70h20q66 70 168 70q127 0 190 -98q38 -62 39 -144v-39zM384 201v40h-121q-95 0 -107 -63q-2 -9 -2 -17q0 -64 67 -79q16 -3 34 -3q74 0 110 56q19 30 19 66zM627 432q-93 0 -123 -84q-4 -11 -6 -23h248 q-9 79 -75 100q-21 7 -44 7z" glyph-name="ae" horiz-adv-x="908" unicode="æ"/>
<glyph d="M412 163h112q-16 -103 -106 -149q-51 -26 -115 -27l-17 -45h13q12 9 36 9q43 0 61 -42q8 -18 8 -40q0 -56 -49 -79q-24 -11 -55 -11q-67 0 -90 48q-6 13 -7 27h63q9 -23 36 -24q30 0 35 27q1 5 1 9q0 30 -28 35q-4 1 -8 1q-19 -1 -31 -12h-58l38 101q-126 21 -177 133 q-26 58 -26 131q0 143 93 216q65 51 159 51q127 0 187 -85q26 -37 33 -83h-112q-24 71 -107 72q-103 0 -131 -102q-9 -31 -9 -68q0 -118 73 -157q29 -16 67 -16q93 1 111 80z" glyph-name="ccedilla" horiz-adv-x="568" unicode="ç"/>
<glyph d="M536 283v-38h-376q4 -148 122 -161q11 -1 21 -1q88 1 111 65h115q-21 -106 -123 -144q-47 -17 -104 -17q-142 0 -210 106q-44 69 -44 165q0 150 99 220q63 44 152 44q135 0 199 -101q37 -60 38 -138zM298 432q-100 0 -129 -88q-2 -8 -4 -15h255q-9 69 -69 94q-25 9 -53 9 zM271 582l-112 145h123l89 -145h-100z" glyph-name="egrave" horiz-adv-x="583" unicode="è"/>
<glyph d="M536 283v-38h-376q4 -148 122 -161q11 -1 21 -1q88 1 111 65h115q-21 -106 -123 -144q-47 -17 -104 -17q-142 0 -210 106q-44 69 -44 165q0 150 99 220q63 44 152 44q135 0 199 -101q37 -60 38 -138zM298 432q-100 0 -129 -88q-2 -8 -4 -15h255q-9 69 -69 94q-25 9 -53 9 zM453 727l-113 -145h-102l89 145h126z" glyph-name="eacute" horiz-adv-x="583" unicode="é"/>
<glyph d="M536 283v-38h-376q4 -148 122 -161q11 -1 21 -1q88 1 111 65h115q-21 -106 -123 -144q-47 -17 -104 -17q-142 0 -210 106q-44 69 -44 165q0 150 99 220q63 44 152 44q135 0 199 -101q37 -60 38 -138zM298 432q-100 0 -129 -88q-2 -8 -4 -15h255q-9 69 -69 94q-25 9 -53 9 zM352 727l111 -145h-97l-59 73h-17l-58 -73h-96l112 145h104z" glyph-name="ecircumflex" horiz-adv-x="583" unicode="ê"/>
<glyph d="M536 283v-38h-376q4 -148 122 -161q11 -1 21 -1q88 1 111 65h115q-21 -106 -123 -144q-47 -17 -104 -17q-142 0 -210 106q-44 69 -44 165q0 150 99 220q63 44 152 44q135 0 199 -101q37 -60 38 -138zM298 432q-100 0 -129 -88q-2 -8 -4 -15h255q-9 69 -69 94q-25 9 -53 9 zM446 614h-104v113h104v-113zM257 614h-105v113h105v-113z" glyph-name="edieresis" horiz-adv-x="583" unicode="ë"/>
<glyph d="M192 509v-509h-113v509h113zM91 582l-112 145h123l89 -145h-100z" glyph-name="igrave" horiz-adv-x="273" unicode="ì"/>
<glyph d="M192 509v-509h-113v509h113zM301 727l-113 -145h-102l89 145h126z" glyph-name="iacute" horiz-adv-x="272" unicode="í"/>
<glyph d="M192 509v-509h-113v509h113zM189 727l111 -145h-97l-59 73h-17l-58 -73h-96l112 145h104z" glyph-name="icircumflex" horiz-adv-x="272" unicode="î"/>
<glyph d="M192 509v-509h-113v509h113zM283 614h-104v113h104v-113zM94 614h-105v113h105v-113z" glyph-name="idieresis" horiz-adv-x="272" unicode="ï"/>
<glyph d="M139 555v63h150q-54 52 -136 109h138q66 -47 123 -109h128v-63h-78q92 -137 92 -293q0 -153 -96 -226q-65 -49 -160 -49q-134 0 -204 97q-48 67 -48 157q0 123 80 195q62 54 145 54q80 -1 119 -37h20q-23 52 -64 102h-209zM302 83q102 0 132 92q9 30 9 65q0 105 -71 143 q-31 15 -70 15q-100 0 -131 -89q-11 -32 -11 -69q0 -103 70 -141q32 -16 72 -16z" glyph-name="eth" horiz-adv-x="604" unicode="ð"/>
<glyph d="M549 0h-113v296q0 117 -100 124q-7 1 -14 1q-76 0 -112 -68q-19 -37 -19 -83v-270h-113v509h110v-50h20q48 62 144 63q128 0 175 -99q22 -47 22 -108v-315zM386 661q36 2 36 62h61q0 -122 -79 -135q-10 -2 -19 -2q-10 0 -19 1.5t-20 7t-14.5 7t-17.5 10.5l-13 9 q-35 23 -45 25q-7 2 -13 2q-36 -2 -36 -62h-61q0 122 79 135q10 2 19 2q37 0 89 -37q38 -24 53 -25z" glyph-name="ntilde" horiz-adv-x="620" unicode="ñ"/>
<glyph d="M305 522q139 0 209 -101q48 -69 48 -166q0 -140 -92 -214q-67 -54 -165 -54q-139 0 -209 102q-48 69 -48 166q0 139 91 213q68 54 166 54zM305 83q94 0 129 89q15 38 15 83q0 99 -60 145q-36 26 -84 26q-93 0 -129 -87q-15 -38 -15 -84q0 -103 63 -148q35 -24 81 -24z M262 582l-112 145h123l89 -145h-100z" glyph-name="ograve" horiz-adv-x="610" unicode="ò"/>
<glyph d="M305 522q139 0 209 -101q48 -69 48 -166q0 -140 -92 -214q-67 -54 -165 -54q-139 0 -209 102q-48 69 -48 166q0 139 91 213q68 54 166 54zM305 83q94 0 129 89q15 38 15 83q0 99 -60 145q-36 26 -84 26q-93 0 -129 -87q-15 -38 -15 -84q0 -103 63 -148q35 -24 81 -24z M465 727l-113 -145h-102l89 145h126z" glyph-name="oacute" horiz-adv-x="610" unicode="ó"/>
<glyph d="M305 522q139 0 209 -101q48 -69 48 -166q0 -140 -92 -214q-67 -54 -165 -54q-139 0 -209 102q-48 69 -48 166q0 139 91 213q68 54 166 54zM305 83q94 0 129 89q15 38 15 83q0 99 -60 145q-36 26 -84 26q-93 0 -129 -87q-15 -38 -15 -84q0 -103 63 -148q35 -24 81 -24z M358 727l111 -145h-97l-59 73h-17l-58 -73h-96l112 145h104z" glyph-name="ocircumflex" horiz-adv-x="610" unicode="ô"/>
<glyph d="M305 522q139 0 209 -101q48 -69 48 -166q0 -140 -92 -214q-67 -54 -165 -54q-139 0 -209 102q-48 69 -48 166q0 139 91 213q68 54 166 54zM305 83q94 0 129 89q15 38 15 83q0 99 -60 145q-36 26 -84 26q-93 0 -129 -87q-15 -38 -15 -84q0 -103 63 -148q35 -24 81 -24z M377 661q36 2 36 62h61q0 -122 -79 -135q-10 -2 -19 -2q-10 0 -19 1.5t-20 7t-14.5 7t-16.5 10.5l-14 9q-35 23 -45 25q-7 2 -13 2q-36 -2 -36 -62h-61q0 122 79 135q10 2 19 2q37 0 89 -37q38 -24 53 -25z" glyph-name="otilde" horiz-adv-x="610" unicode="õ"/>
<glyph d="M305 522q139 0 209 -101q48 -69 48 -166q0 -140 -92 -214q-67 -54 -165 -54q-139 0 -209 102q-48 69 -48 166q0 139 91 213q68 54 166 54zM305 83q94 0 129 89q15 38 15 83q0 99 -60 145q-36 26 -84 26q-93 0 -129 -87q-15 -38 -15 -84q0 -103 63 -148q35 -24 81 -24z M452 614h-104v113h104v-113zM263 614h-105v113h105v-113z" glyph-name="odieresis" horiz-adv-x="610" unicode="ö"/>
<glyph d="M408 17h-130v124h130v-124zM408 433h-130v124h130v-124zM603 239h-520v96h520v-96z" glyph-name="divide" horiz-adv-x="686" unicode="÷"/>
<glyph d="M305 522q83 -1 145 -39l22 26h95l-63 -75q58 -73 58 -179q0 -140 -92 -214q-67 -54 -165 -54q-84 1 -145 39l-22 -26h-95l63 75q-58 71 -58 180q0 139 91 213q68 54 166 54zM305 83q94 0 129 89q15 38 15 83q0 49 -19 91l-204 -241q34 -22 79 -22zM161 255q0 -53 18 -93 l204 241q-35 23 -78 23q-93 0 -129 -87q-15 -38 -15 -84z" glyph-name="oslash" horiz-adv-x="610" unicode="ø"/>
<glyph d="M71 509h113v-296q2 -124 112 -125q77 0 112 70q18 36 18 81v270h113v-509h-110v50h-20q-48 -62 -143 -63q-130 0 -175 103q-20 45 -20 104v315zM260 582l-112 145h123l89 -145h-100z" glyph-name="ugrave" horiz-adv-x="617" unicode="ù"/>
<glyph d="M71 509h113v-296q2 -124 112 -125q77 0 112 70q18 36 18 81v270h113v-509h-110v50h-20q-48 -62 -143 -63q-130 0 -175 103q-20 45 -20 104v315zM451 727l-113 -145h-102l89 145h126z" glyph-name="uacute" horiz-adv-x="617" unicode="ú"/>
<glyph d="M71 509h113v-296q2 -124 112 -125q77 0 112 70q18 36 18 81v270h113v-509h-110v50h-20q-48 -62 -143 -63q-130 0 -175 103q-20 45 -20 104v315zM358 727l111 -145h-97l-59 73h-17l-58 -73h-96l112 145h104z" glyph-name="ucircumflex" horiz-adv-x="617" unicode="û"/>
<glyph d="M71 509h113v-296q2 -124 112 -125q77 0 112 70q18 36 18 81v270h113v-509h-110v50h-20q-48 -62 -143 -63q-130 0 -175 103q-20 45 -20 104v315zM452 614h-104v113h104v-113zM263 614h-105v113h105v-113z" glyph-name="udieresis" horiz-adv-x="617" unicode="ü"/>
<glyph d="M245 -200h-117l105 250l-216 459h120l142 -307h26l129 307h119zM443 727l-113 -145h-102l89 145h126z" glyph-name="yacute" horiz-adv-x="566" unicode="ý"/>
<glyph d="M581 254q0 -140 -83 -214q-59 -53 -143 -53q-97 1 -144 63h-20v-250h-113v927h113v-269h20q48 63 144 63q119 0 182 -99q44 -70 44 -168zM468 254q0 114 -71 154q-30 17 -68 17q-95 0 -128 -91q-13 -37 -13 -80q0 -104 63 -148q33 -23 78 -23q94 0 126 90q13 36 13 81z " glyph-name="thorn" horiz-adv-x="629" unicode="þ"/>
</font>
</defs>
</svg>
